<?xml version="1.0" encoding="utf-8" standalone="no"?>
<!DOCTYPE svg PUBLIC "-//W3C//DTD SVG 1.1//EN"
  "http://www.w3.org/Graphics/SVG/1.1/DTD/svg11.dtd">
<svg xmlns:xlink="http://www.w3.org/1999/xlink" width="460.8pt" height="345.6pt" viewBox="0 0 460.8 345.6" xmlns="http://www.w3.org/2000/svg" version="1.1">
 <metadata>
  <rdf:RDF xmlns:dc="http://purl.org/dc/elements/1.1/" xmlns:cc="http://creativecommons.org/ns#" xmlns:rdf="http://www.w3.org/1999/02/22-rdf-syntax-ns#">
   <cc:Work>
    <dc:type rdf:resource="http://purl.org/dc/dcmitype/StillImage"/>
    <dc:date>2024-05-18T22:57:45.920768</dc:date>
    <dc:format>image/svg+xml</dc:format>
    <dc:creator>
     <cc:Agent>
      <dc:title>Matplotlib v3.8.2, https://matplotlib.org/</dc:title>
     </cc:Agent>
    </dc:creator>
   </cc:Work>
  </rdf:RDF>
 </metadata>
 <defs>
  <style type="text/css">*{stroke-linejoin: round; stroke-linecap: butt}</style>
 </defs>
 <g id="figure_1">
  <g id="patch_1">
   <path d="M 0 345.6 
L 460.8 345.6 
L 460.8 0 
L 0 0 
z
" style="fill: #ffffff"/>
  </g>
  <g id="axes_1">
   <g id="patch_2">
    <path d="M 57.6 307.584 
L 414.72 307.584 
L 414.72 41.472 
L 57.6 41.472 
z
" style="fill: #ffffff"/>
   </g>
   <g id="matplotlib.axis_1">
    <g id="xtick_1">
     <g id="line2d_1">
      <defs>
       <path id="m946dcce8d4" d="M 0 0 
L 0 3.5 
" style="stroke: #000000; stroke-width: 0.8"/>
      </defs>
      <g>
       <use xlink:href="#m946dcce8d4" x="70.881322" y="307.584" style="stroke: #000000; stroke-width: 0.8"/>
      </g>
     </g>
     <g id="text_1">
      <!-- 0 -->
      <g transform="translate(67.700072 322.182437) scale(0.1 -0.1)">
       <defs>
        <path id="DejaVuSans-30" d="M 2034 4250 
Q 1547 4250 1301 3770 
Q 1056 3291 1056 2328 
Q 1056 1369 1301 889 
Q 1547 409 2034 409 
Q 2525 409 2770 889 
Q 3016 1369 3016 2328 
Q 3016 3291 2770 3770 
Q 2525 4250 2034 4250 
z
M 2034 4750 
Q 2819 4750 3233 4129 
Q 3647 3509 3647 2328 
Q 3647 1150 3233 529 
Q 2819 -91 2034 -91 
Q 1250 -91 836 529 
Q 422 1150 422 2328 
Q 422 3509 836 4129 
Q 1250 4750 2034 4750 
z
" transform="scale(0.015625)"/>
       </defs>
       <use xlink:href="#DejaVuSans-30"/>
      </g>
     </g>
    </g>
    <g id="xtick_2">
     <g id="line2d_2">
      <g>
       <use xlink:href="#m946dcce8d4" x="136.468099" y="307.584" style="stroke: #000000; stroke-width: 0.8"/>
      </g>
     </g>
     <g id="text_2">
      <!-- 200 -->
      <g transform="translate(126.924349 322.182437) scale(0.1 -0.1)">
       <defs>
        <path id="DejaVuSans-32" d="M 1228 531 
L 3431 531 
L 3431 0 
L 469 0 
L 469 531 
Q 828 903 1448 1529 
Q 2069 2156 2228 2338 
Q 2531 2678 2651 2914 
Q 2772 3150 2772 3378 
Q 2772 3750 2511 3984 
Q 2250 4219 1831 4219 
Q 1534 4219 1204 4116 
Q 875 4013 500 3803 
L 500 4441 
Q 881 4594 1212 4672 
Q 1544 4750 1819 4750 
Q 2544 4750 2975 4387 
Q 3406 4025 3406 3419 
Q 3406 3131 3298 2873 
Q 3191 2616 2906 2266 
Q 2828 2175 2409 1742 
Q 1991 1309 1228 531 
z
" transform="scale(0.015625)"/>
       </defs>
       <use xlink:href="#DejaVuSans-32"/>
       <use xlink:href="#DejaVuSans-30" x="63.623047"/>
       <use xlink:href="#DejaVuSans-30" x="127.246094"/>
      </g>
     </g>
    </g>
    <g id="xtick_3">
     <g id="line2d_3">
      <g>
       <use xlink:href="#m946dcce8d4" x="202.054876" y="307.584" style="stroke: #000000; stroke-width: 0.8"/>
      </g>
     </g>
     <g id="text_3">
      <!-- 400 -->
      <g transform="translate(192.511126 322.182437) scale(0.1 -0.1)">
       <defs>
        <path id="DejaVuSans-34" d="M 2419 4116 
L 825 1625 
L 2419 1625 
L 2419 4116 
z
M 2253 4666 
L 3047 4666 
L 3047 1625 
L 3713 1625 
L 3713 1100 
L 3047 1100 
L 3047 0 
L 2419 0 
L 2419 1100 
L 313 1100 
L 313 1709 
L 2253 4666 
z
" transform="scale(0.015625)"/>
       </defs>
       <use xlink:href="#DejaVuSans-34"/>
       <use xlink:href="#DejaVuSans-30" x="63.623047"/>
       <use xlink:href="#DejaVuSans-30" x="127.246094"/>
      </g>
     </g>
    </g>
    <g id="xtick_4">
     <g id="line2d_4">
      <g>
       <use xlink:href="#m946dcce8d4" x="267.641653" y="307.584" style="stroke: #000000; stroke-width: 0.8"/>
      </g>
     </g>
     <g id="text_4">
      <!-- 600 -->
      <g transform="translate(258.097903 322.182437) scale(0.1 -0.1)">
       <defs>
        <path id="DejaVuSans-36" d="M 2113 2584 
Q 1688 2584 1439 2293 
Q 1191 2003 1191 1497 
Q 1191 994 1439 701 
Q 1688 409 2113 409 
Q 2538 409 2786 701 
Q 3034 994 3034 1497 
Q 3034 2003 2786 2293 
Q 2538 2584 2113 2584 
z
M 3366 4563 
L 3366 3988 
Q 3128 4100 2886 4159 
Q 2644 4219 2406 4219 
Q 1781 4219 1451 3797 
Q 1122 3375 1075 2522 
Q 1259 2794 1537 2939 
Q 1816 3084 2150 3084 
Q 2853 3084 3261 2657 
Q 3669 2231 3669 1497 
Q 3669 778 3244 343 
Q 2819 -91 2113 -91 
Q 1303 -91 875 529 
Q 447 1150 447 2328 
Q 447 3434 972 4092 
Q 1497 4750 2381 4750 
Q 2619 4750 2861 4703 
Q 3103 4656 3366 4563 
z
" transform="scale(0.015625)"/>
       </defs>
       <use xlink:href="#DejaVuSans-36"/>
       <use xlink:href="#DejaVuSans-30" x="63.623047"/>
       <use xlink:href="#DejaVuSans-30" x="127.246094"/>
      </g>
     </g>
    </g>
    <g id="xtick_5">
     <g id="line2d_5">
      <g>
       <use xlink:href="#m946dcce8d4" x="333.22843" y="307.584" style="stroke: #000000; stroke-width: 0.8"/>
      </g>
     </g>
     <g id="text_5">
      <!-- 800 -->
      <g transform="translate(323.68468 322.182437) scale(0.1 -0.1)">
       <defs>
        <path id="DejaVuSans-38" d="M 2034 2216 
Q 1584 2216 1326 1975 
Q 1069 1734 1069 1313 
Q 1069 891 1326 650 
Q 1584 409 2034 409 
Q 2484 409 2743 651 
Q 3003 894 3003 1313 
Q 3003 1734 2745 1975 
Q 2488 2216 2034 2216 
z
M 1403 2484 
Q 997 2584 770 2862 
Q 544 3141 544 3541 
Q 544 4100 942 4425 
Q 1341 4750 2034 4750 
Q 2731 4750 3128 4425 
Q 3525 4100 3525 3541 
Q 3525 3141 3298 2862 
Q 3072 2584 2669 2484 
Q 3125 2378 3379 2068 
Q 3634 1759 3634 1313 
Q 3634 634 3220 271 
Q 2806 -91 2034 -91 
Q 1263 -91 848 271 
Q 434 634 434 1313 
Q 434 1759 690 2068 
Q 947 2378 1403 2484 
z
M 1172 3481 
Q 1172 3119 1398 2916 
Q 1625 2713 2034 2713 
Q 2441 2713 2670 2916 
Q 2900 3119 2900 3481 
Q 2900 3844 2670 4047 
Q 2441 4250 2034 4250 
Q 1625 4250 1398 4047 
Q 1172 3844 1172 3481 
z
" transform="scale(0.015625)"/>
       </defs>
       <use xlink:href="#DejaVuSans-38"/>
       <use xlink:href="#DejaVuSans-30" x="63.623047"/>
       <use xlink:href="#DejaVuSans-30" x="127.246094"/>
      </g>
     </g>
    </g>
    <g id="xtick_6">
     <g id="line2d_6">
      <g>
       <use xlink:href="#m946dcce8d4" x="398.815207" y="307.584" style="stroke: #000000; stroke-width: 0.8"/>
      </g>
     </g>
     <g id="text_6">
      <!-- 1000 -->
      <g transform="translate(386.090207 322.182437) scale(0.1 -0.1)">
       <defs>
        <path id="DejaVuSans-31" d="M 794 531 
L 1825 531 
L 1825 4091 
L 703 3866 
L 703 4441 
L 1819 4666 
L 2450 4666 
L 2450 531 
L 3481 531 
L 3481 0 
L 794 0 
L 794 531 
z
" transform="scale(0.015625)"/>
       </defs>
       <use xlink:href="#DejaVuSans-31"/>
       <use xlink:href="#DejaVuSans-30" x="63.623047"/>
       <use xlink:href="#DejaVuSans-30" x="127.246094"/>
       <use xlink:href="#DejaVuSans-30" x="190.869141"/>
      </g>
     </g>
    </g>
   </g>
   <g id="matplotlib.axis_2">
    <g id="ytick_1">
     <g id="line2d_7">
      <defs>
       <path id="mbacf245780" d="M 0 0 
L -3.5 0 
" style="stroke: #000000; stroke-width: 0.8"/>
      </defs>
      <g>
       <use xlink:href="#mbacf245780" x="57.6" y="307.584" style="stroke: #000000; stroke-width: 0.8"/>
      </g>
     </g>
     <g id="text_7">
      <!-- 0.0 -->
      <g transform="translate(34.696875 311.383219) scale(0.1 -0.1)">
       <defs>
        <path id="DejaVuSans-2e" d="M 684 794 
L 1344 794 
L 1344 0 
L 684 0 
L 684 794 
z
" transform="scale(0.015625)"/>
       </defs>
       <use xlink:href="#DejaVuSans-30"/>
       <use xlink:href="#DejaVuSans-2e" x="63.623047"/>
       <use xlink:href="#DejaVuSans-30" x="95.410156"/>
      </g>
     </g>
    </g>
    <g id="ytick_2">
     <g id="line2d_8">
      <g>
       <use xlink:href="#mbacf245780" x="57.6" y="263.232" style="stroke: #000000; stroke-width: 0.8"/>
      </g>
     </g>
     <g id="text_8">
      <!-- 0.5 -->
      <g transform="translate(34.696875 267.031219) scale(0.1 -0.1)">
       <defs>
        <path id="DejaVuSans-35" d="M 691 4666 
L 3169 4666 
L 3169 4134 
L 1269 4134 
L 1269 2991 
Q 1406 3038 1543 3061 
Q 1681 3084 1819 3084 
Q 2600 3084 3056 2656 
Q 3513 2228 3513 1497 
Q 3513 744 3044 326 
Q 2575 -91 1722 -91 
Q 1428 -91 1123 -41 
Q 819 9 494 109 
L 494 744 
Q 775 591 1075 516 
Q 1375 441 1709 441 
Q 2250 441 2565 725 
Q 2881 1009 2881 1497 
Q 2881 1984 2565 2268 
Q 2250 2553 1709 2553 
Q 1456 2553 1204 2497 
Q 953 2441 691 2322 
L 691 4666 
z
" transform="scale(0.015625)"/>
       </defs>
       <use xlink:href="#DejaVuSans-30"/>
       <use xlink:href="#DejaVuSans-2e" x="63.623047"/>
       <use xlink:href="#DejaVuSans-35" x="95.410156"/>
      </g>
     </g>
    </g>
    <g id="ytick_3">
     <g id="line2d_9">
      <g>
       <use xlink:href="#mbacf245780" x="57.6" y="218.88" style="stroke: #000000; stroke-width: 0.8"/>
      </g>
     </g>
     <g id="text_9">
      <!-- 1.0 -->
      <g transform="translate(34.696875 222.679219) scale(0.1 -0.1)">
       <use xlink:href="#DejaVuSans-31"/>
       <use xlink:href="#DejaVuSans-2e" x="63.623047"/>
       <use xlink:href="#DejaVuSans-30" x="95.410156"/>
      </g>
     </g>
    </g>
    <g id="ytick_4">
     <g id="line2d_10">
      <g>
       <use xlink:href="#mbacf245780" x="57.6" y="174.528" style="stroke: #000000; stroke-width: 0.8"/>
      </g>
     </g>
     <g id="text_10">
      <!-- 1.5 -->
      <g transform="translate(34.696875 178.327219) scale(0.1 -0.1)">
       <use xlink:href="#DejaVuSans-31"/>
       <use xlink:href="#DejaVuSans-2e" x="63.623047"/>
       <use xlink:href="#DejaVuSans-35" x="95.410156"/>
      </g>
     </g>
    </g>
    <g id="ytick_5">
     <g id="line2d_11">
      <g>
       <use xlink:href="#mbacf245780" x="57.6" y="130.176" style="stroke: #000000; stroke-width: 0.8"/>
      </g>
     </g>
     <g id="text_11">
      <!-- 2.0 -->
      <g transform="translate(34.696875 133.975219) scale(0.1 -0.1)">
       <use xlink:href="#DejaVuSans-32"/>
       <use xlink:href="#DejaVuSans-2e" x="63.623047"/>
       <use xlink:href="#DejaVuSans-30" x="95.410156"/>
      </g>
     </g>
    </g>
    <g id="ytick_6">
     <g id="line2d_12">
      <g>
       <use xlink:href="#mbacf245780" x="57.6" y="85.824" style="stroke: #000000; stroke-width: 0.8"/>
      </g>
     </g>
     <g id="text_12">
      <!-- 2.5 -->
      <g transform="translate(34.696875 89.623219) scale(0.1 -0.1)">
       <use xlink:href="#DejaVuSans-32"/>
       <use xlink:href="#DejaVuSans-2e" x="63.623047"/>
       <use xlink:href="#DejaVuSans-35" x="95.410156"/>
      </g>
     </g>
    </g>
    <g id="ytick_7">
     <g id="line2d_13">
      <g>
       <use xlink:href="#mbacf245780" x="57.6" y="41.472" style="stroke: #000000; stroke-width: 0.8"/>
      </g>
     </g>
     <g id="text_13">
      <!-- 3.0 -->
      <g transform="translate(34.696875 45.271219) scale(0.1 -0.1)">
       <defs>
        <path id="DejaVuSans-33" d="M 2597 2516 
Q 3050 2419 3304 2112 
Q 3559 1806 3559 1356 
Q 3559 666 3084 287 
Q 2609 -91 1734 -91 
Q 1441 -91 1130 -33 
Q 819 25 488 141 
L 488 750 
Q 750 597 1062 519 
Q 1375 441 1716 441 
Q 2309 441 2620 675 
Q 2931 909 2931 1356 
Q 2931 1769 2642 2001 
Q 2353 2234 1838 2234 
L 1294 2234 
L 1294 2753 
L 1863 2753 
Q 2328 2753 2575 2939 
Q 2822 3125 2822 3475 
Q 2822 3834 2567 4026 
Q 2313 4219 1838 4219 
Q 1578 4219 1281 4162 
Q 984 4106 628 3988 
L 628 4550 
Q 988 4650 1302 4700 
Q 1616 4750 1894 4750 
Q 2613 4750 3031 4423 
Q 3450 4097 3450 3541 
Q 3450 3153 3228 2886 
Q 3006 2619 2597 2516 
z
" transform="scale(0.015625)"/>
       </defs>
       <use xlink:href="#DejaVuSans-33"/>
       <use xlink:href="#DejaVuSans-2e" x="63.623047"/>
       <use xlink:href="#DejaVuSans-30" x="95.410156"/>
      </g>
     </g>
    </g>
   </g>
   <g id="line2d_14">
    <path d="M 73.832727 88.101032 
L 74.160661 83.271986 
L 74.488595 88.028294 
L 74.816529 85.568532 
L 75.144463 95.767718 
L 75.472397 102.354877 
L 75.800331 102.374392 
L 76.128264 112.077723 
L 76.456198 104.201695 
L 76.784132 115.380173 
L 77.112066 111.625332 
L 77.44 117.30505 
L 77.767934 126.516073 
L 78.095868 130.867004 
L 78.423802 137.179181 
L 79.079669 141.966536 
L 79.407603 134.758449 
L 79.735537 145.741778 
L 80.063471 142.214907 
L 80.391405 146.640349 
L 80.719339 152.681979 
L 81.047273 146.757439 
L 81.375207 150.963782 
L 81.70314 147.712781 
L 82.359008 130.318813 
L 82.686942 139.772886 
L 83.014876 140.984582 
L 83.34281 140.228824 
L 83.670744 136.493499 
L 83.998678 129.650872 
L 84.326612 131.501238 
L 84.654545 127.381824 
L 84.982479 125.535894 
L 85.638347 137.463921 
L 85.966281 134.645795 
L 86.294215 133.110328 
L 86.622149 135.969258 
L 86.950083 140.642185 
L 87.278017 141.17707 
L 87.60595 135.955953 
L 88.261818 131.102957 
L 88.589752 130.071329 
L 88.917686 135.868136 
L 89.24562 138.792707 
L 89.573554 132.06983 
L 89.901488 135.247208 
L 90.229421 132.404244 
L 90.557355 140.960632 
L 90.885289 140.1073 
L 91.213223 141.025386 
L 91.541157 148.870368 
L 91.869091 153.899885 
L 92.197025 146.260696 
L 92.524959 144.271953 
L 92.852893 153.192027 
L 93.180826 142.355059 
L 93.50876 144.148654 
L 93.836694 143.378703 
L 94.164628 143.39467 
L 94.820496 137.749548 
L 95.14843 136.514788 
L 95.476364 138.249838 
L 95.804298 142.267242 
L 96.132231 143.729084 
L 96.460165 155.284554 
L 96.788099 160.729206 
L 97.116033 161.428193 
L 97.771901 172.329028 
L 98.099835 170.649861 
L 98.427769 176.641816 
L 99.083636 169.548157 
L 99.41157 170.994033 
L 99.739504 161.186918 
L 100.067438 159.865229 
L 100.395372 150.587677 
L 100.723306 146.599546 
L 101.05124 149.447831 
L 101.379174 155.292538 
L 101.707107 149.898447 
L 102.035041 158.625147 
L 102.362975 161.076925 
L 102.690909 152.618112 
L 103.018843 151.95638 
L 103.346777 152.143546 
L 104.002645 169.850638 
L 104.658512 158.317344 
L 104.986446 150.820082 
L 105.31438 148.989231 
L 105.642314 148.996328 
L 105.970248 145.517357 
L 106.298182 152.081453 
L 106.626116 151.723976 
L 106.95405 150.875078 
L 107.281983 146.822193 
L 107.609917 144.89909 
L 107.937851 140.7575 
L 108.265785 146.707764 
L 108.593719 148.02768 
L 108.921653 140.429295 
L 109.249587 148.166945 
L 109.577521 148.29734 
L 109.905455 148.214845 
L 110.233388 150.674607 
L 110.561322 150.796132 
L 110.889256 151.913802 
L 111.21719 158.695223 
L 111.545124 161.327958 
L 111.873058 158.4025 
L 112.200992 167.39265 
L 112.528926 164.796284 
L 112.85686 164.826444 
L 113.184793 167.247176 
L 113.512727 158.494752 
L 114.168595 160.313184 
L 114.496529 159.426144 
L 115.480331 138.85746 
L 115.808264 142.914781 
L 116.464132 136.142231 
L 116.792066 141.649862 
L 117.12 141.555836 
L 117.447934 139.018015 
L 117.775868 141.781144 
L 118.431736 158.013976 
L 118.759669 163.047928 
L 119.087603 163.312266 
L 119.415537 171.771967 
L 119.743471 166.663503 
L 120.071405 170.295045 
L 120.399339 171.308932 
L 121.055207 181.987119 
L 121.38314 180.019665 
L 121.711074 186.323858 
L 122.039008 183.578469 
L 122.366942 187.748444 
L 122.694876 177.596271 
L 123.02281 180.442783 
L 123.350744 180.289325 
L 123.678678 178.146236 
L 124.006612 173.732325 
L 124.334545 172.128557 
L 124.662479 174.316884 
L 124.990413 172.702472 
L 125.318347 179.138834 
L 125.646281 169.482516 
L 125.974215 176.346432 
L 126.302149 180.320371 
L 126.630083 174.930716 
L 126.958017 183.527021 
L 127.28595 183.718621 
L 127.613884 173.683538 
L 127.941818 174.458811 
L 128.269752 167.585138 
L 128.597686 152.297004 
L 128.92562 159.01367 
L 129.253554 156.102405 
L 129.581488 154.352275 
L 129.909421 164.474289 
L 130.237355 151.346984 
L 130.893223 162.183951 
L 131.221157 164.243658 
L 131.877025 186.719478 
L 132.204959 188.856357 
L 132.860826 169.6342 
L 133.18876 163.408954 
L 133.516694 168.676197 
L 134.172562 165.598168 
L 134.500496 165.810171 
L 134.82843 163.508302 
L 135.156364 158.622486 
L 135.484298 156.26562 
L 135.812231 169.718469 
L 136.140165 175.783162 
L 136.796033 165.080137 
L 137.123967 163.450644 
L 137.451901 168.308076 
L 137.779835 167.426358 
L 138.107769 165.779124 
L 138.435702 167.279109 
L 139.09157 154.453398 
L 139.419504 159.017219 
L 139.747438 166.188937 
L 140.075372 163.251948 
L 140.403306 165.300123 
L 140.73124 168.403876 
L 141.059174 169.802738 
L 141.715041 156.534394 
L 142.042975 157.831246 
L 142.370909 166.094911 
L 142.698843 157.733672 
L 143.026777 158.427337 
L 143.354711 170.807754 
L 143.682645 168.970694 
L 144.010579 162.542316 
L 144.338512 146.898478 
L 144.666446 157.385952 
L 144.99438 156.796957 
L 145.322314 164.939098 
L 145.650248 163.030188 
L 145.978182 171.826963 
L 146.306116 166.662616 
L 146.961983 149.911753 
L 147.617851 175.848803 
L 147.945785 167.90802 
L 148.273719 172.708681 
L 148.601653 161.707611 
L 148.929587 159.942401 
L 149.257521 161.001527 
L 149.585455 164.434372 
L 150.241322 159.70911 
L 150.569256 147.782857 
L 150.89719 142.607866 
L 151.225124 149.019391 
L 151.880992 164.851281 
L 152.208926 167.4166 
L 152.53686 167.88407 
L 152.864793 167.903585 
L 153.520661 196.607313 
L 153.848595 185.642611 
L 154.176529 180.112804 
L 154.504463 178.677573 
L 155.160331 187.076068 
L 155.488264 190.822925 
L 155.816198 186.096776 
L 156.144132 175.138284 
L 156.8 167.574493 
L 157.127934 182.278068 
L 157.455868 181.014924 
L 157.783802 180.873884 
L 158.111736 171.892604 
L 158.767603 164.139875 
L 159.095537 164.071572 
L 159.423471 181.507231 
L 159.751405 180.344321 
L 160.407273 186.087905 
L 160.735207 195.102006 
L 161.391074 178.482424 
L 161.719008 177.042758 
L 162.046942 176.993971 
L 162.374876 170.524788 
L 162.70281 168.733855 
L 163.030744 159.407516 
L 163.358678 160.115374 
L 163.686612 159.730399 
L 164.014545 162.475788 
L 164.342479 175.781388 
L 164.670413 173.77579 
L 164.998347 176.462634 
L 165.326281 180.525277 
L 165.654215 194.022478 
L 165.982149 182.792552 
L 166.310083 190.693417 
L 166.638017 195.424888 
L 166.96595 190.396259 
L 167.293884 191.693998 
L 167.621818 187.712963 
L 167.949752 198.262529 
L 168.277686 202.573544 
L 168.60562 194.93879 
L 168.933554 196.17355 
L 169.261488 208.726053 
L 169.917355 184.060132 
L 170.245289 180.840177 
L 170.573223 186.624564 
L 170.901157 189.699932 
L 171.557025 182.096225 
L 171.884959 186.754072 
L 172.212893 172.61022 
L 172.540826 166.657294 
L 172.86876 168.768449 
L 173.196694 170.099009 
L 173.524628 177.491601 
L 173.852562 170.308351 
L 174.180496 154.833051 
L 174.50843 158.120421 
L 174.836364 158.288959 
L 175.164298 160.785089 
L 175.492231 174.496954 
L 175.820165 176.852045 
L 176.148099 187.458382 
L 176.476033 182.818276 
L 176.803967 180.673413 
L 177.131901 171.642459 
L 177.459835 176.622301 
L 177.787769 173.365091 
L 178.443636 163.777075 
L 178.77157 163.640471 
L 179.427438 143.267823 
L 179.755372 142.765759 
L 180.083306 130.927323 
L 180.41124 131.764689 
L 180.739174 144.50347 
L 181.067107 143.595141 
L 181.395041 150.00844 
L 182.050909 146.310371 
L 182.378843 150.431558 
L 182.706777 153.09534 
L 183.034711 162.368456 
L 183.362645 179.096256 
L 183.690579 181.779552 
L 184.018512 174.924507 
L 184.346446 183.879176 
L 184.67438 179.632028 
L 185.002314 177.809161 
L 185.330248 169.890555 
L 185.986116 188.45098 
L 186.31405 182.312663 
L 186.641983 183.944817 
L 186.969917 181.000731 
L 187.297851 180.06313 
L 187.625785 178.244698 
L 187.953719 185.276264 
L 188.281653 187.708527 
L 188.609587 188.552989 
L 188.937521 179.702104 
L 189.265455 175.268678 
L 189.593388 179.022632 
L 189.921322 176.174346 
L 190.249256 181.420301 
L 190.905124 196.412164 
L 191.233058 191.129841 
L 191.560992 196.022753 
L 191.888926 193.300428 
L 192.21686 198.665245 
L 192.872727 214.364079 
L 193.200661 215.206767 
L 193.528595 217.492669 
L 194.184463 205.076771 
L 194.512397 209.733731 
L 194.840331 212.484442 
L 195.168264 218.053279 
L 195.824132 215.066615 
L 196.152066 206.906734 
L 196.48 209.579386 
L 196.807934 213.974669 
L 197.135868 216.385644 
L 197.791736 218.186335 
L 198.119669 215.590856 
L 198.447603 225.138954 
L 198.775537 226.812799 
L 199.103471 221.820538 
L 199.431405 221.017766 
L 199.759339 207.08769 
L 200.087273 210.13556 
L 200.415207 202.324285 
L 200.74314 201.908264 
L 201.071074 198.090444 
L 201.726942 173.586851 
L 202.054876 169.522433 
L 202.38281 166.974854 
L 202.710744 171.752452 
L 203.038678 187.200253 
L 203.366612 178.565806 
L 203.694545 183.131401 
L 204.022479 181.479732 
L 204.350413 181.818582 
L 204.678347 181.44159 
L 205.006281 193.574523 
L 205.334215 195.883488 
L 205.662149 200.800351 
L 205.990083 190.897436 
L 206.318017 175.366253 
L 206.64595 168.61854 
L 206.973884 172.617316 
L 207.301818 168.54935 
L 207.629752 161.471658 
L 207.957686 176.962038 
L 208.28562 171.793256 
L 208.613554 175.012324 
L 208.941488 179.870642 
L 209.269421 187.03349 
L 209.597355 190.892114 
L 209.925289 199.247144 
L 210.253223 197.09962 
L 210.581157 201.748596 
L 210.909091 208.121979 
L 211.237025 207.275743 
L 211.564959 204.017645 
L 211.892893 197.568864 
L 212.220826 201.956164 
L 212.54876 200.607863 
L 213.204628 206.330158 
L 213.860496 203.572351 
L 214.18843 209.749697 
L 214.844298 195.631569 
L 215.172231 202.389926 
L 215.500165 202.049303 
L 216.156033 212.33808 
L 216.483967 208.485665 
L 216.811901 206.532403 
L 217.139835 212.129626 
L 217.467769 208.632914 
L 217.795702 213.23399 
L 218.123636 210.98357 
L 218.45157 193.641051 
L 218.779504 193.884987 
L 219.435372 174.873946 
L 219.763306 174.066739 
L 220.09124 171.441988 
L 220.419174 167.672068 
L 220.747107 166.780593 
L 221.075041 164.795397 
L 221.402975 175.548983 
L 221.730909 178.509036 
L 222.058843 174.527113 
L 222.386777 185.620435 
L 222.714711 190.065393 
L 223.042645 182.762392 
L 223.370579 179.85911 
L 223.698512 173.290579 
L 224.026446 179.820968 
L 224.35438 182.332178 
L 224.682314 182.85908 
L 225.010248 189.492365 
L 225.338182 179.660413 
L 225.666116 175.866543 
L 225.99405 168.715227 
L 226.321983 173.289692 
L 226.977851 173.370413 
L 227.633719 161.976384 
L 227.961653 157.53054 
L 228.289587 149.693541 
L 228.617521 157.595293 
L 228.945455 147.841402 
L 229.601322 169.006176 
L 229.929256 175.700667 
L 230.585124 168.797722 
L 230.913058 165.342701 
L 231.240992 158.400726 
L 231.568926 163.863118 
L 231.89686 157.599729 
L 232.224793 173.009388 
L 232.552727 171.425134 
L 233.208595 162.166211 
L 233.536529 161.685435 
L 233.864463 165.541398 
L 234.192397 163.747803 
L 234.520331 171.331108 
L 234.848264 171.782611 
L 235.176198 170.211663 
L 235.504132 164.760803 
L 235.832066 167.022755 
L 236.16 166.165874 
L 236.487934 163.000915 
L 236.815868 169.327284 
L 237.143802 157.604164 
L 237.471736 167.085734 
L 237.799669 170.779369 
L 238.127603 178.723699 
L 238.783471 185.227476 
L 239.111405 185.638176 
L 239.439339 179.668397 
L 239.767273 177.528856 
L 240.095207 173.951424 
L 240.42314 179.914107 
L 240.751074 178.281953 
L 241.734876 191.745446 
L 242.06281 187.013088 
L 242.390744 176.368608 
L 242.718678 180.648576 
L 243.374545 186.124274 
L 243.702479 197.991982 
L 244.358347 195.518915 
L 244.686281 178.753859 
L 245.342149 174.872172 
L 245.670083 174.490744 
L 245.998017 167.507965 
L 246.32595 172.698924 
L 246.653884 181.031777 
L 247.309752 167.881409 
L 247.637686 155.834519 
L 247.96562 171.295626 
L 248.293554 165.90331 
L 248.621488 165.778237 
L 248.949421 181.31563 
L 249.277355 191.019848 
L 249.605289 195.989933 
L 249.933223 184.095613 
L 250.261157 187.841583 
L 250.917025 209.081756 
L 251.244959 210.854062 
L 251.572893 218.057714 
L 251.900826 218.678642 
L 252.22876 214.616886 
L 252.556694 219.461011 
L 252.884628 212.030277 
L 253.212562 207.951667 
L 253.540496 210.836321 
L 253.86843 194.434952 
L 254.196364 194.287703 
L 254.524298 180.741715 
L 254.852231 184.624289 
L 255.180165 181.980023 
L 255.836033 159.393324 
L 256.163967 160.87468 
L 256.491901 169.707825 
L 256.819835 169.911844 
L 257.147769 179.925638 
L 257.475702 180.027648 
L 257.803636 187.907224 
L 258.13157 182.530875 
L 258.459504 173.98868 
L 258.787438 184.62695 
L 259.77124 194.577765 
L 260.099174 190.303119 
L 260.427107 190.07515 
L 260.755041 195.826717 
L 261.082975 188.188416 
L 261.410909 185.084663 
L 261.738843 194.959192 
L 262.066777 195.511818 
L 262.394711 205.955827 
L 262.722645 205.946957 
L 263.050579 206.525307 
L 263.378512 200.84559 
L 263.706446 202.572657 
L 264.03438 196.722628 
L 264.362314 193.238335 
L 264.690248 197.398552 
L 265.018182 199.114088 
L 265.67405 178.189701 
L 266.001983 174.233503 
L 266.329917 178.291711 
L 266.657851 177.9502 
L 266.985785 172.909152 
L 267.313719 174.996357 
L 267.641653 188.288652 
L 267.969587 183.633466 
L 268.297521 186.341599 
L 268.953388 195.265221 
L 269.281322 200.360379 
L 269.609256 183.071969 
L 269.93719 189.861373 
L 270.265124 189.184562 
L 270.593058 183.135836 
L 270.920992 170.261338 
L 271.248926 175.491325 
L 271.57686 170.66228 
L 271.904793 172.986324 
L 272.232727 173.476858 
L 272.888595 184.955155 
L 273.216529 179.287857 
L 273.544463 180.633496 
L 273.872397 175.250051 
L 274.200331 188.075762 
L 274.528264 191.542314 
L 274.856198 196.215241 
L 275.184132 185.696721 
L 275.512066 184.279231 
L 276.495868 165.336492 
L 276.823802 170.298593 
L 277.151736 183.341629 
L 277.479669 180.58737 
L 277.807603 179.076741 
L 278.135537 167.804237 
L 278.463471 170.992259 
L 278.791405 178.168412 
L 279.119339 173.040434 
L 279.447273 184.671302 
L 279.775207 191.815523 
L 280.10314 189.707916 
L 280.431074 181.936558 
L 280.759008 182.15477 
L 281.414876 186.048876 
L 281.74281 184.701462 
L 282.070744 183.84192 
L 282.398678 189.863148 
L 282.726612 176.891075 
L 283.054545 177.055177 
L 283.382479 164.897407 
L 283.710413 172.283789 
L 284.038347 176.284339 
L 284.366281 173.951424 
L 285.022149 199.067075 
L 285.350083 193.772333 
L 286.00595 202.600155 
L 286.661818 212.270665 
L 286.989752 200.190067 
L 287.317686 202.150426 
L 287.64562 198.996998 
L 287.973554 197.590153 
L 288.629421 199.772271 
L 288.957355 192.659985 
L 289.285289 208.596545 
L 289.613223 206.207747 
L 289.941157 204.741469 
L 290.269091 211.776584 
L 290.597025 198.448808 
L 290.924959 198.974822 
L 291.252893 193.129229 
L 291.580826 194.048202 
L 291.90876 188.904257 
L 292.236694 189.432933 
L 292.564628 179.136173 
L 292.892562 174.833142 
L 293.220496 191.194595 
L 293.54843 185.931786 
L 293.876364 197.756029 
L 294.532231 179.438653 
L 294.860165 174.937812 
L 295.188099 178.689992 
L 295.516033 170.935488 
L 296.171901 192.156146 
L 296.499835 193.434371 
L 296.827769 196.075089 
L 297.155702 191.392404 
L 297.483636 202.270176 
L 297.81157 202.748291 
L 298.139504 202.947875 
L 298.467438 202.846752 
L 298.795372 209.73994 
L 299.123306 202.335817 
L 299.45124 182.866176 
L 299.779174 174.218423 
L 300.107107 184.118676 
L 300.435041 188.992961 
L 300.762975 189.615663 
L 301.090909 201.676746 
L 301.418843 199.416568 
L 301.746777 200.06322 
L 302.730579 210.953411 
L 303.058512 207.081481 
L 303.386446 195.478998 
L 303.71438 195.565928 
L 304.042314 200.434003 
L 304.370248 197.958275 
L 304.698182 194.219401 
L 305.026116 196.122102 
L 305.35405 194.934355 
L 306.009917 200.15636 
L 306.337851 206.388703 
L 306.665785 216.045907 
L 306.993719 216.168319 
L 307.321653 212.091483 
L 307.649587 212.267117 
L 307.977521 209.934202 
L 308.305455 213.334226 
L 308.633388 213.035293 
L 308.961322 213.772424 
L 309.289256 210.019357 
L 309.61719 210.562226 
L 310.600992 180.294647 
L 310.928926 175.100141 
L 311.25686 182.152996 
L 311.584793 177.080014 
L 311.912727 176.671089 
L 312.240661 173.576206 
L 312.568595 181.194993 
L 312.896529 174.323094 
L 313.224463 177.234359 
L 313.552397 185.635515 
L 314.208264 195.510931 
L 314.536198 201.127668 
L 314.864132 201.005257 
L 315.192066 197.436695 
L 315.52 185.688737 
L 315.847934 194.532526 
L 316.175868 197.240659 
L 316.503802 197.769335 
L 316.831736 195.761076 
L 317.159669 200.763095 
L 317.487603 191.733028 
L 317.815537 189.440029 
L 318.471405 199.505272 
L 318.799339 200.520046 
L 319.127273 196.180646 
L 319.455207 195.786801 
L 319.78314 197.028657 
L 320.111074 194.018043 
L 320.439008 196.06267 
L 320.766942 209.592691 
L 321.094876 208.705651 
L 321.42281 209.934202 
L 321.750744 213.848709 
L 322.078678 229.604314 
L 322.406612 219.336826 
L 322.734545 213.356402 
L 323.062479 217.58847 
L 323.390413 211.929155 
L 323.718347 200.373684 
L 324.046281 202.870702 
L 324.374215 194.963628 
L 324.702149 191.756091 
L 325.358017 172.181779 
L 325.68595 183.946591 
L 326.013884 188.242525 
L 326.341818 182.900771 
L 326.997686 193.705805 
L 327.32562 182.069614 
L 327.653554 177.995439 
L 327.981488 168.393231 
L 328.637355 177.823354 
L 328.965289 168.650473 
L 329.293223 175.41504 
L 330.277025 156.762363 
L 330.604959 157.625453 
L 330.932893 157.00896 
L 331.260826 161.521332 
L 331.58876 161.842441 
L 331.916694 168.807479 
L 332.244628 166.75132 
L 332.572562 169.199551 
L 332.900496 170.703084 
L 333.22843 177.550145 
L 333.556364 178.43275 
L 333.884298 169.881684 
L 334.212231 185.107726 
L 334.540165 184.469057 
L 334.868099 182.864402 
L 335.196033 170.792675 
L 335.523967 184.559535 
L 335.851901 174.048998 
L 336.179835 171.040159 
L 336.507769 158.294281 
L 336.835702 167.600218 
L 337.163636 171.405619 
L 337.49157 172.095736 
L 338.147438 187.814085 
L 338.475372 189.744284 
L 338.803306 185.875016 
L 339.13124 197.807478 
L 339.787107 232.443729 
L 340.115041 231.60725 
L 340.442975 245.186058 
L 340.770909 243.700266 
L 341.426777 230.027432 
L 341.754711 228.501723 
L 342.082645 228.232063 
L 342.410579 223.234479 
L 343.066446 208.536227 
L 343.39438 214.296664 
L 343.722314 217.100598 
L 344.050248 211.830693 
L 344.378182 216.802552 
L 344.706116 220.0846 
L 345.361983 215.846323 
L 345.689917 216.308471 
L 346.017851 213.469943 
L 346.345785 207.10277 
L 347.001653 179.570822 
L 347.329587 177.384269 
L 347.657521 166.502949 
L 347.985455 164.115037 
L 348.313388 173.192118 
L 348.641322 167.852137 
L 348.969256 171.068544 
L 349.29719 167.937293 
L 349.625124 175.713972 
L 349.953058 191.474012 
L 350.280992 186.846324 
L 350.608926 191.517477 
L 351.264793 191.31878 
L 351.592727 185.843082 
L 351.920661 194.232707 
L 352.248595 188.60976 
L 352.576529 186.734557 
L 353.232397 167.292415 
L 353.560331 183.457832 
L 353.888264 179.55042 
L 354.216198 182.261215 
L 354.544132 176.506986 
L 354.872066 181.26773 
L 355.2 183.564276 
L 355.527934 188.686932 
L 355.855868 186.738106 
L 356.183802 186.671578 
L 356.511736 191.45982 
L 356.839669 193.463643 
L 357.167603 193.424613 
L 357.495537 190.453916 
L 357.823471 199.523013 
L 358.151405 186.263539 
L 358.807273 172.848833 
L 359.135207 184.676625 
L 359.46314 182.147674 
L 359.791074 176.450216 
L 360.119008 162.000334 
L 360.446942 163.509189 
L 360.774876 168.779981 
L 361.10281 167.813107 
L 361.430744 179.503407 
L 362.086612 189.336246 
L 362.414545 191.86431 
L 362.742479 190.743091 
L 363.070413 194.986691 
L 363.398347 196.960355 
L 363.726281 190.98614 
L 364.054215 192.094053 
L 364.382149 189.969592 
L 364.710083 173.971826 
L 365.038017 163.609425 
L 365.36595 165.430518 
L 365.693884 158.408709 
L 366.021818 163.69458 
L 366.349752 154.401062 
L 366.677686 152.276602 
L 367.333554 153.831583 
L 367.661488 161.035235 
L 367.989421 171.434892 
L 368.317355 168.167923 
L 368.645289 153.160093 
L 368.973223 155.400756 
L 369.301157 163.997061 
L 369.629091 176.948732 
L 369.957025 183.040036 
L 370.284959 186.789554 
L 370.612893 185.047407 
L 370.940826 176.989536 
L 371.26876 182.302906 
L 371.596694 180.403753 
L 372.252562 170.730582 
L 372.580496 168.733855 
L 372.90843 155.640257 
L 373.236364 160.102068 
L 373.892231 171.553755 
L 374.220165 173.389928 
L 374.548099 179.596547 
L 374.876033 190.500042 
L 375.203967 212.089709 
L 375.531901 212.869417 
L 375.859835 208.468812 
L 376.187769 221.829408 
L 376.515702 201.344106 
L 376.843636 199.478661 
L 377.17157 196.122102 
L 377.499504 183.146481 
L 378.155372 164.874344 
L 378.483306 164.940872 
L 378.81124 179.407607 
L 379.139174 180.14385 
L 379.467107 169.038109 
L 379.795041 191.831489 
L 380.122975 189.832988 
L 380.450909 178.053097 
L 380.778843 185.151191 
L 381.106777 186.446269 
L 381.434711 189.809038 
L 381.762645 178.953443 
L 382.090579 172.952617 
L 382.418512 176.727859 
L 382.746446 186.19435 
L 383.07438 171.147491 
L 383.402314 164.703145 
L 383.730248 169.362766 
L 384.058182 164.542591 
L 384.386116 152.356435 
L 384.71405 163.767318 
L 385.041983 171.064996 
L 385.369917 175.235858 
L 385.697851 175.615511 
L 386.025785 171.379008 
L 386.681653 197.029544 
L 387.665455 234.998404 
L 387.993388 237.264791 
L 388.321322 230.107265 
L 388.649256 228.342943 
L 388.97719 228.884924 
L 389.305124 233.50108 
L 390.288926 218.465752 
L 390.61686 203.497839 
L 390.944793 197.515642 
L 391.272727 198.386715 
L 391.600661 210.969377 
L 391.928595 215.491507 
L 392.256529 212.754102 
L 392.584463 203.733792 
L 392.912397 200.665521 
L 393.240331 191.227415 
L 393.568264 188.568069 
L 393.896198 188.812005 
L 394.224132 201.00437 
L 394.552066 186.877371 
L 394.88 177.582079 
L 395.207934 156.278039 
L 395.535868 154.947479 
L 395.863802 162.46603 
L 396.191736 155.948947 
L 396.847603 163.515398 
L 397.175537 163.227997 
L 398.159339 145.439297 
L 398.487273 153.757958 
L 398.487273 153.757958 
" clip-path="url(#p514e5bea46)" style="fill: none; stroke: #1f77b4; stroke-width: 1.5; stroke-linecap: square"/>
   </g>
   <g id="line2d_15">
    <path d="M 73.832727 65.767139 
L 74.160661 66.349924 
L 74.488595 76.999726 
L 74.816529 77.810481 
L 75.144463 80.434345 
L 75.472397 75.363137 
L 75.800331 75.558286 
L 76.128264 70.884472 
L 76.456198 70.782463 
L 76.784132 76.355735 
L 77.112066 72.040285 
L 77.767934 76.720308 
L 78.751736 96.868535 
L 79.079669 96.450739 
L 79.407603 95.606277 
L 79.735537 102.058606 
L 80.063471 100.411373 
L 80.391405 101.226563 
L 80.719339 110.50234 
L 81.047273 112.23739 
L 81.375207 116.306243 
L 81.70314 114.130333 
L 82.031074 114.284678 
L 82.359008 112.250696 
L 82.686942 119.295567 
L 83.014876 117.599547 
L 83.34281 119.192671 
L 83.670744 121.648884 
L 83.998678 111.673233 
L 84.326612 110.997308 
L 84.654545 106.146973 
L 84.982479 105.477258 
L 85.638347 108.125073 
L 85.966281 106.82822 
L 86.294215 102.895972 
L 86.622149 102.19521 
L 86.950083 104.074848 
L 87.278017 103.452146 
L 88.261818 93.737284 
L 88.589752 91.930383 
L 88.917686 102.550913 
L 89.24562 102.759368 
L 89.901488 103.602056 
L 90.229421 102.362861 
L 90.557355 107.194568 
L 90.885289 107.21497 
L 91.541157 117.192396 
L 91.869091 119.614015 
L 92.197025 111.245679 
L 92.524959 110.732083 
L 92.852893 114.112593 
L 93.180826 113.826966 
L 93.50876 112.644541 
L 93.836694 119.146545 
L 94.164628 121.346404 
L 94.492562 118.160156 
L 94.820496 120.108983 
L 95.14843 115.609916 
L 95.476364 117.720184 
L 95.804298 122.949285 
L 96.132231 122.108371 
L 96.460165 124.668369 
L 96.788099 131.565992 
L 97.116033 129.317345 
L 97.443967 128.680451 
L 98.099835 135.15052 
L 98.427769 141.413023 
L 98.755702 138.276449 
L 99.083636 139.198084 
L 99.41157 141.211665 
L 99.739504 133.92197 
L 100.067438 134.371699 
L 100.723306 116.830483 
L 101.05124 122.424157 
L 101.379174 118.294099 
L 101.707107 107.664699 
L 102.035041 107.423424 
L 102.690909 97.935644 
L 103.018843 97.953385 
L 103.346777 94.929466 
L 104.002645 113.532468 
L 104.658512 98.776558 
L 105.31438 114.815128 
L 105.642314 118.301196 
L 105.970248 119.45967 
L 106.298182 124.103324 
L 106.626116 113.882849 
L 106.95405 118.419172 
L 107.281983 117.785825 
L 107.609917 118.275471 
L 107.937851 119.447251 
L 108.593719 109.02187 
L 108.921653 100.2384 
L 109.249587 103.709388 
L 109.577521 110.285015 
L 109.905455 121.14682 
L 110.233388 119.355886 
L 110.561322 122.886305 
L 110.889256 121.376563 
L 111.21719 130.743706 
L 111.545124 126.827424 
L 111.873058 124.406692 
L 112.200992 133.932614 
L 112.528926 133.726821 
L 112.85686 128.260881 
L 113.184793 127.660355 
L 113.512727 122.824212 
L 113.840661 120.183494 
L 114.168595 119.571437 
L 114.496529 113.595448 
L 114.824463 112.546967 
L 115.152397 113.600771 
L 115.480331 112.625914 
L 115.808264 116.582999 
L 116.136198 114.29621 
L 116.464132 110.98489 
L 116.792066 111.956198 
L 117.12 110.43049 
L 117.447934 114.114367 
L 117.775868 115.729667 
L 118.431736 128.044443 
L 118.759669 128.900436 
L 119.087603 126.416724 
L 119.415537 135.441469 
L 119.743471 132.159421 
L 120.071405 130.690483 
L 120.399339 132.647293 
L 120.727273 132.458354 
L 121.055207 136.099653 
L 121.38314 136.965404 
L 121.711074 140.426634 
L 122.039008 139.820786 
L 122.366942 141.679135 
L 122.694876 133.617715 
L 123.02281 134.557978 
L 123.350744 138.638362 
L 123.678678 137.794787 
L 124.006612 139.595478 
L 124.334545 134.543785 
L 124.662479 139.834979 
L 124.990413 131.425839 
L 125.318347 130.684274 
L 125.646281 122.306181 
L 126.302149 127.323279 
L 126.630083 122.567858 
L 126.958017 122.446333 
L 127.28595 120.932156 
L 127.613884 116.308017 
L 127.941818 116.249472 
L 128.269752 114.745052 
L 128.597686 104.391521 
L 128.92562 109.829964 
L 129.253554 108.315786 
L 129.581488 110.720552 
L 129.909421 113.983085 
L 130.237355 111.693635 
L 130.565289 113.544 
L 130.893223 117.581806 
L 131.221157 117.94017 
L 132.204959 139.03753 
L 132.532893 135.829106 
L 132.860826 126.575505 
L 133.18876 127.783653 
L 133.516694 134.489676 
L 133.844628 132.907196 
L 134.500496 136.778239 
L 134.82843 131.985562 
L 135.156364 132.233046 
L 135.484298 132.256109 
L 135.812231 138.070656 
L 136.140165 149.083258 
L 136.468099 147.376593 
L 136.796033 142.354172 
L 137.779835 139.137765 
L 138.107769 145.743552 
L 138.435702 144.253325 
L 138.763636 139.989324 
L 139.09157 132.780349 
L 139.419504 133.614167 
L 139.747438 132.37852 
L 140.075372 126.650016 
L 140.403306 129.648211 
L 140.73124 130.910469 
L 141.059174 130.830636 
L 141.387107 127.189336 
L 141.715041 124.841341 
L 142.042975 124.003089 
L 142.370909 125.411708 
L 142.698843 116.366561 
L 143.026777 117.664301 
L 143.354711 126.306732 
L 143.682645 127.502461 
L 144.010579 127.854616 
L 144.338512 116.944024 
L 144.666446 120.55339 
L 144.99438 122.77986 
L 145.322314 128.739882 
L 145.650248 132.134584 
L 145.978182 137.660844 
L 146.306116 137.088703 
L 146.63405 135.244547 
L 146.961983 130.26293 
L 147.289917 135.33946 
L 147.617851 145.724924 
L 147.945785 140.525096 
L 148.273719 141.675587 
L 148.601653 133.316122 
L 148.929587 131.517204 
L 149.257521 131.312298 
L 149.585455 132.777688 
L 149.913388 132.544397 
L 150.241322 130.363165 
L 150.569256 128.990028 
L 150.89719 126.574618 
L 151.225124 126.024653 
L 151.553058 126.296974 
L 151.880992 130.561862 
L 152.208926 127.019912 
L 152.53686 135.31551 
L 152.864793 137.666166 
L 153.192727 135.613555 
L 153.520661 140.762822 
L 153.848595 130.640809 
L 154.176529 126.393661 
L 154.832397 138.852138 
L 155.160331 140.580979 
L 155.488264 149.187041 
L 155.816198 138.48313 
L 156.144132 133.228305 
L 156.472066 139.295658 
L 156.8 141.771387 
L 157.127934 142.622058 
L 157.455868 147.389011 
L 157.783802 139.910377 
L 158.439669 134.567735 
L 158.767603 129.850456 
L 159.751405 137.215549 
L 160.079339 138.273788 
L 160.407273 143.190651 
L 160.735207 140.730002 
L 161.06314 143.595141 
L 161.391074 133.89802 
L 161.719008 137.824946 
L 162.046942 140.078028 
L 162.374876 138.906248 
L 162.70281 140.046094 
L 163.030744 130.825313 
L 163.686612 125.266234 
L 164.014545 133.29572 
L 164.670413 144.123817 
L 164.998347 142.433119 
L 165.654215 153.600952 
L 165.982149 147.764229 
L 166.310083 153.131708 
L 166.638017 161.769704 
L 166.96595 163.252835 
L 167.293884 156.924691 
L 167.949752 159.770316 
L 168.277686 164.320831 
L 168.60562 157.705286 
L 168.933554 156.867034 
L 169.261488 167.046705 
L 169.589421 156.429723 
L 169.917355 140.485179 
L 170.245289 136.218516 
L 170.573223 134.853362 
L 171.229091 129.750221 
L 171.557025 119.70538 
L 171.884959 123.395466 
L 172.212893 115.810387 
L 172.540826 115.208087 
L 173.524628 133.383537 
L 173.852562 136.308995 
L 174.180496 128.810845 
L 174.50843 127.83865 
L 174.836364 132.949774 
L 175.164298 132.080475 
L 175.492231 144.376623 
L 175.820165 141.013855 
L 176.148099 141.925732 
L 176.476033 140.958858 
L 176.803967 138.523933 
L 177.131901 138.811334 
L 177.459835 139.804819 
L 177.787769 143.769001 
L 178.115702 142.092495 
L 178.443636 138.470711 
L 178.77157 131.573975 
L 179.427438 124.464349 
L 179.755372 123.501024 
L 180.083306 113.546661 
L 180.41124 108.547304 
L 180.739174 118.265714 
L 181.067107 116.908543 
L 181.395041 118.729636 
L 181.722975 115.884899 
L 182.050909 117.988957 
L 182.378843 113.277888 
L 183.034711 123.917933 
L 183.362645 136.800415 
L 183.690579 140.036337 
L 184.018512 134.454194 
L 184.346446 134.333556 
L 185.002314 133.515706 
L 185.330248 131.441806 
L 185.658182 142.593673 
L 185.986116 142.779951 
L 186.31405 141.965649 
L 186.641983 139.242436 
L 186.969917 137.474565 
L 187.297851 132.299574 
L 187.625785 132.993239 
L 187.953719 131.083442 
L 188.281653 134.930534 
L 188.609587 134.405407 
L 188.937521 139.208728 
L 189.265455 134.282995 
L 189.593388 131.673324 
L 189.921322 131.730094 
L 190.249256 135.022787 
L 190.57719 152.776892 
L 190.905124 157.334504 
L 191.233058 154.198817 
L 191.560992 160.864923 
L 191.888926 160.264397 
L 192.21686 150.779278 
L 192.544793 153.747314 
L 193.200661 162.688677 
L 193.528595 160.518977 
L 193.856529 147.319822 
L 194.184463 147.655123 
L 194.512397 155.422932 
L 195.168264 157.188142 
L 195.496198 161.610924 
L 195.824132 158.413144 
L 196.152066 156.612453 
L 196.48 158.794572 
L 196.807934 167.413939 
L 197.135868 170.80598 
L 197.463802 163.023091 
L 197.791736 160.419629 
L 198.119669 156.733091 
L 198.447603 159.009235 
L 198.775537 156.936223 
L 199.103471 158.905452 
L 199.431405 152.376837 
L 199.759339 140.838221 
L 200.087273 135.099959 
L 200.415207 126.949836 
L 200.74314 129.095585 
L 201.071074 129.442418 
L 201.399008 126.241091 
L 201.726942 118.831645 
L 202.38281 115.993117 
L 203.038678 128.534089 
L 203.366612 124.713608 
L 204.350413 136.538738 
L 204.678347 134.416051 
L 205.006281 141.155781 
L 205.334215 137.659069 
L 205.662149 142.747131 
L 206.318017 127.801394 
L 206.64595 123.852292 
L 206.973884 126.134646 
L 207.301818 124.294038 
L 207.629752 118.44667 
L 207.957686 122.241427 
L 208.28562 123.794634 
L 208.613554 125.935062 
L 208.941488 126.40608 
L 209.269421 135.952404 
L 209.925289 146.22078 
L 210.253223 146.908236 
L 210.581157 150.349064 
L 210.909091 151.298196 
L 211.237025 157.304344 
L 211.892893 149.586209 
L 212.220826 155.102711 
L 212.54876 147.533599 
L 212.876694 150.65598 
L 213.204628 150.261247 
L 213.532562 150.92564 
L 213.860496 148.607804 
L 214.18843 152.667786 
L 214.844298 137.782368 
L 215.172231 149.56492 
L 215.500165 149.739667 
L 215.828099 153.926496 
L 216.156033 156.215946 
L 216.483967 157.594406 
L 216.811901 153.351694 
L 217.139835 154.00012 
L 217.467769 150.573485 
L 217.795702 154.077293 
L 218.123636 159.136969 
L 218.45157 147.975345 
L 218.779504 148.05163 
L 219.107438 146.88606 
L 219.435372 143.417733 
L 219.763306 136.662036 
L 220.09124 138.347412 
L 220.747107 136.89178 
L 221.075041 138.744806 
L 221.730909 143.324594 
L 222.058843 136.338267 
L 222.386777 144.201876 
L 222.714711 139.120024 
L 223.370579 137.39828 
L 223.698512 132.493836 
L 224.026446 139.546691 
L 224.35438 136.64607 
L 224.682314 134.79393 
L 225.010248 136.979597 
L 225.338182 132.863731 
L 225.666116 131.09586 
L 225.99405 135.279141 
L 226.321983 137.647538 
L 226.649917 134.018657 
L 226.977851 132.45658 
L 227.305785 126.964028 
L 227.633719 127.858164 
L 227.961653 130.346312 
L 228.289587 122.926222 
L 228.617521 129.441531 
L 228.945455 125.292845 
L 229.273388 122.950172 
L 229.601322 134.656439 
L 230.25719 132.225949 
L 230.585124 130.694031 
L 230.913058 127.243446 
L 231.240992 116.021503 
L 231.568926 122.844614 
L 231.89686 117.151592 
L 232.224793 124.333955 
L 232.552727 128.59973 
L 232.880661 117.149818 
L 233.208595 122.622854 
L 233.536529 123.76004 
L 234.192397 128.846327 
L 234.520331 135.281802 
L 234.848264 134.397423 
L 235.176198 140.046094 
L 235.504132 135.021012 
L 235.832066 135.037866 
L 236.16 137.753096 
L 236.487934 139.253967 
L 236.815868 142.908572 
L 237.143802 134.016883 
L 237.471736 133.656745 
L 238.127603 145.441071 
L 238.455537 146.165783 
L 238.783471 141.585996 
L 239.111405 144.427185 
L 239.439339 142.878413 
L 239.767273 136.899763 
L 240.095207 138.463615 
L 240.42314 142.329335 
L 241.406942 125.509283 
L 241.734876 122.584712 
L 242.06281 129.485883 
L 242.390744 124.50604 
L 242.718678 127.510445 
L 243.046612 132.783898 
L 243.374545 132.213531 
L 243.702479 136.326735 
L 244.358347 149.884255 
L 245.342149 139.994646 
L 245.670083 144.127365 
L 245.998017 139.266386 
L 246.32595 137.532223 
L 246.653884 137.018627 
L 246.981818 137.300705 
L 247.309752 136.550269 
L 247.637686 122.89074 
L 247.96562 130.160033 
L 248.293554 131.734529 
L 248.621488 127.238124 
L 248.949421 125.802893 
L 249.605289 133.042913 
L 249.933223 132.728901 
L 250.261157 131.526075 
L 250.589091 133.335636 
L 250.917025 142.30095 
L 251.572893 148.763036 
L 251.900826 148.28226 
L 252.22876 150.62582 
L 252.556694 152.015812 
L 252.884628 149.809743 
L 253.212562 137.435535 
L 253.540496 143.918024 
L 253.86843 137.268772 
L 254.196364 137.259014 
L 254.524298 129.383873 
L 254.852231 128.048878 
L 255.180165 131.629859 
L 255.508099 125.385097 
L 256.163967 118.217814 
L 256.491901 130.788945 
L 256.819835 131.606796 
L 257.147769 141.917748 
L 257.475702 140.093994 
L 257.803636 149.477103 
L 258.13157 151.834856 
L 258.459504 147.163703 
L 258.787438 150.582355 
L 259.443306 154.292844 
L 259.77124 157.754961 
L 260.427107 149.537422 
L 260.755041 153.313551 
L 261.410909 141.499066 
L 261.738843 145.090691 
L 262.394711 160.217384 
L 262.722645 164.554122 
L 263.050579 165.208758 
L 263.378512 163.25106 
L 263.706446 164.798945 
L 264.03438 167.696905 
L 264.362314 161.338602 
L 264.690248 161.562136 
L 265.018182 164.793623 
L 265.67405 141.726148 
L 266.001983 135.091976 
L 266.329917 137.94647 
L 266.657851 134.933196 
L 267.313719 123.759153 
L 267.641653 132.906309 
L 267.969587 133.269108 
L 268.297521 132.651729 
L 269.281322 143.721988 
L 269.609256 127.313522 
L 269.93719 131.161501 
L 270.265124 127.992108 
L 270.593058 122.867677 
L 270.920992 114.855932 
L 271.248926 118.984216 
L 271.57686 115.463555 
L 271.904793 115.52476 
L 272.232727 118.717217 
L 272.560661 127.317957 
L 272.888595 132.080475 
L 273.216529 127.946868 
L 273.544463 134.276786 
L 273.872397 133.943259 
L 274.528264 149.465572 
L 274.856198 152.570212 
L 275.184132 150.617837 
L 275.512066 147.153059 
L 275.84 141.868961 
L 276.167934 143.321046 
L 276.495868 135.959501 
L 276.823802 138.29419 
L 277.151736 149.142689 
L 277.479669 149.424768 
L 277.807603 142.221116 
L 278.135537 129.976416 
L 278.463471 129.171871 
L 278.791405 130.093505 
L 279.119339 125.762976 
L 279.447273 132.594071 
L 279.775207 142.794144 
L 280.10314 143.232342 
L 280.431074 135.696937 
L 280.759008 138.658764 
L 281.74281 161.458353 
L 282.398678 170.485759 
L 282.726612 160.364632 
L 283.054545 164.378488 
L 283.382479 153.764168 
L 283.710413 154.876516 
L 284.366281 133.827057 
L 284.694215 136.976049 
L 285.022149 138.901812 
L 285.350083 136.835896 
L 286.00595 143.51442 
L 286.333884 141.727035 
L 286.661818 147.917687 
L 286.989752 143.785855 
L 287.317686 153.349033 
L 287.64562 150.696783 
L 287.973554 149.375981 
L 288.301488 145.261002 
L 288.629421 144.884897 
L 288.957355 144.023581 
L 289.285289 152.168383 
L 289.613223 153.194688 
L 289.941157 150.989507 
L 290.269091 154.847244 
L 290.597025 145.146574 
L 290.924959 145.652187 
L 291.252893 147.265713 
L 291.580826 157.456028 
L 292.236694 147.586821 
L 292.564628 141.184166 
L 292.892562 137.157892 
L 293.220496 143.826659 
L 293.54843 143.761905 
L 293.876364 155.922336 
L 294.204298 152.499249 
L 294.860165 137.409811 
L 295.188099 141.073286 
L 295.516033 140.710487 
L 296.171901 154.413481 
L 296.499835 157.769153 
L 297.155702 146.38843 
L 297.483636 156.378275 
L 297.81157 157.53941 
L 298.139504 151.916463 
L 298.467438 151.272472 
L 298.795372 152.64561 
L 299.123306 148.11461 
L 299.45124 135.794511 
L 299.779174 130.810234 
L 300.107107 147.520293 
L 300.435041 144.580643 
L 300.762975 138.584252 
L 301.090909 146.729053 
L 301.418843 150.00844 
L 301.746777 149.665156 
L 302.074711 148.805614 
L 302.730579 155.212704 
L 303.058512 153.592082 
L 303.386446 141.478664 
L 303.71438 148.532406 
L 304.042314 152.608355 
L 304.370248 148.589176 
L 304.698182 141.142476 
L 305.026116 139.356864 
L 305.35405 146.210135 
L 305.681983 138.724404 
L 306.009917 138.995839 
L 306.337851 135.264061 
L 306.665785 142.220229 
L 306.993719 144.948764 
L 307.321653 143.205731 
L 308.305455 156.659466 
L 308.633388 150.72783 
L 308.961322 158.390081 
L 309.289256 156.234574 
L 309.61719 167.258707 
L 309.945124 164.781204 
L 310.600992 150.633804 
L 310.928926 145.945797 
L 311.25686 151.529714 
L 311.584793 145.447281 
L 311.912727 143.897622 
L 312.240661 139.203406 
L 312.568595 148.995441 
L 313.224463 136.580429 
L 313.552397 143.844399 
L 313.880331 145.985714 
L 314.208264 145.39051 
L 314.536198 140.485179 
L 314.864132 148.9777 
L 315.192066 150.033277 
L 315.52 139.617654 
L 315.847934 143.097512 
L 316.175868 141.735018 
L 316.503802 141.989599 
L 316.831736 139.057932 
L 317.159669 142.985745 
L 317.487603 139.768451 
L 317.815537 141.341172 
L 318.143471 144.484842 
L 318.471405 145.151896 
L 318.799339 156.311747 
L 319.127273 154.436544 
L 319.455207 158.171869 
L 319.78314 160.597037 
L 320.111074 159.343649 
L 320.439008 158.847794 
L 320.766942 170.441407 
L 321.094876 172.635944 
L 321.42281 164.113263 
L 321.750744 166.40981 
L 322.078678 165.128924 
L 322.734545 154.96522 
L 323.062479 157.357567 
L 323.718347 147.828983 
L 324.046281 147.876883 
L 324.374215 141.275532 
L 324.702149 145.054322 
L 325.358017 127.147645 
L 325.68595 128.235156 
L 326.013884 129.823845 
L 326.341818 128.025815 
L 326.669752 133.662067 
L 326.997686 135.764352 
L 327.32562 125.6929 
L 327.653554 124.141467 
L 327.981488 119.739087 
L 328.309421 126.593245 
L 328.637355 136.413665 
L 328.965289 132.311992 
L 329.293223 137.709631 
L 329.949091 130.581377 
L 330.277025 130.025203 
L 330.604959 136.450034 
L 330.932893 137.777046 
L 331.58876 127.298442 
L 331.916694 134.028415 
L 332.244628 131.769124 
L 332.572562 137.196922 
L 332.900496 138.723517 
L 333.22843 144.130913 
L 333.556364 138.448535 
L 333.884298 128.736334 
L 334.540165 148.296453 
L 334.868099 150.684365 
L 335.196033 140.747743 
L 335.523967 151.992749 
L 335.851901 142.280548 
L 336.179835 136.500595 
L 336.507769 121.17964 
L 336.835702 131.663566 
L 337.163636 134.559752 
L 337.49157 139.611444 
L 337.819504 141.78558 
L 338.147438 154.518152 
L 338.475372 156.138774 
L 338.803306 157.16774 
L 339.459174 168.242435 
L 339.787107 179.812097 
L 340.115041 180.44367 
L 340.442975 191.529009 
L 340.770909 186.854308 
L 341.098843 179.021745 
L 341.426777 164.740401 
L 341.754711 163.258157 
L 342.082645 157.896887 
L 343.066446 158.549748 
L 343.39438 159.956594 
L 343.722314 159.588472 
L 344.050248 147.451991 
L 344.706116 159.660323 
L 345.03405 159.381792 
L 345.361983 161.26143 
L 345.689917 158.066312 
L 346.017851 156.426175 
L 346.345785 151.714218 
L 347.001653 134.685711 
L 347.329587 137.504724 
L 347.657521 128.26709 
L 347.985455 122.689382 
L 348.313388 129.17808 
L 348.641322 122.461413 
L 348.969256 124.083809 
L 349.29719 120.074388 
L 349.625124 123.949866 
L 349.953058 131.37173 
L 350.280992 133.464257 
L 350.608926 139.769338 
L 350.93686 140.502033 
L 351.264793 145.561709 
L 351.592727 141.434312 
L 351.920661 151.411738 
L 352.248595 151.554551 
L 352.576529 159.908694 
L 352.904463 156.840422 
L 353.232397 151.808244 
L 353.560331 164.244545 
L 353.888264 161.564797 
L 354.216198 165.393262 
L 354.544132 160.204965 
L 355.2 164.109715 
L 355.527934 163.289203 
L 355.855868 155.318262 
L 356.183802 154.574035 
L 356.511736 159.285992 
L 356.839669 155.758234 
L 357.167603 159.953933 
L 357.823471 165.399471 
L 358.151405 161.912517 
L 358.479339 152.611903 
L 358.807273 156.3286 
L 359.135207 162.083716 
L 359.46314 162.462482 
L 360.119008 149.378642 
L 360.446942 149.496618 
L 360.774876 141.49463 
L 361.10281 140.74863 
L 361.430744 145.408251 
L 361.758678 140.802739 
L 362.086612 138.627717 
L 362.414545 137.493193 
L 362.742479 135.944421 
L 363.070413 141.585108 
L 363.398347 139.899732 
L 363.726281 135.559446 
L 364.054215 135.115926 
L 364.382149 132.294252 
L 364.710083 119.952864 
L 365.038017 120.950784 
L 365.36595 122.972348 
L 365.693884 122.356742 
L 366.021818 125.450738 
L 366.349752 117.38577 
L 366.677686 116.643318 
L 367.00562 118.309179 
L 368.317355 144.036 
L 368.645289 133.863425 
L 368.973223 134.412503 
L 369.301157 136.489064 
L 369.629091 142.239744 
L 369.957025 143.776984 
L 370.284959 144.776678 
L 371.26876 153.95222 
L 371.924628 141.215213 
L 372.252562 136.546721 
L 372.580496 135.760804 
L 372.90843 130.061572 
L 373.236364 129.755543 
L 373.564298 136.525432 
L 373.892231 130.348973 
L 374.220165 132.242803 
L 374.876033 142.645121 
L 375.203967 157.830359 
L 375.859835 158.343068 
L 376.187769 165.287704 
L 376.515702 161.319087 
L 377.17157 148.156301 
L 377.827438 124.388951 
L 378.155372 124.210656 
L 378.483306 123.817697 
L 378.81124 133.325879 
L 379.139174 131.622762 
L 379.467107 131.589942 
L 379.795041 139.103171 
L 380.122975 139.792401 
L 380.450909 143.230568 
L 380.778843 149.447831 
L 381.106777 152.371515 
L 381.434711 151.263602 
L 381.762645 143.910927 
L 382.090579 142.252163 
L 382.418512 146.32545 
L 382.746446 147.997521 
L 383.402314 138.78561 
L 383.730248 145.6992 
L 384.386116 133.372892 
L 385.041983 145.099561 
L 385.369917 148.356772 
L 385.697851 146.085949 
L 386.025785 138.165569 
L 386.353719 147.398769 
L 387.009587 151.471169 
L 387.337521 155.029974 
L 387.665455 161.026364 
L 387.993388 160.497688 
L 388.649256 148.961733 
L 388.97719 147.074999 
L 389.305124 154.464042 
L 389.633058 148.792308 
L 390.288926 154.676045 
L 390.61686 149.211878 
L 390.944793 146.920654 
L 391.600661 154.29994 
L 391.928595 162.290396 
L 392.256529 162.356924 
L 392.912397 156.937997 
L 393.240331 151.111031 
L 393.568264 148.142108 
L 394.224132 155.389225 
L 394.552066 147.2666 
L 394.88 145.66017 
L 395.207934 135.320832 
L 395.535868 136.90065 
L 395.863802 135.490257 
L 396.191736 135.858378 
L 396.519669 135.19842 
L 396.847603 134.997949 
L 397.175537 132.170066 
L 397.503471 136.737435 
L 397.831405 137.142812 
L 398.159339 132.09378 
L 398.487273 129.88239 
L 398.487273 129.88239 
" clip-path="url(#p514e5bea46)" style="fill: none; stroke: #ff7f0e; stroke-width: 1.5; stroke-linecap: square"/>
   </g>
   <g id="patch_3">
    <path d="M 57.6 307.584 
L 57.6 41.472 
" style="fill: none; stroke: #000000; stroke-width: 0.8; stroke-linejoin: miter; stroke-linecap: square"/>
   </g>
   <g id="patch_4">
    <path d="M 414.72 307.584 
L 414.72 41.472 
" style="fill: none; stroke: #000000; stroke-width: 0.8; stroke-linejoin: miter; stroke-linecap: square"/>
   </g>
   <g id="patch_5">
    <path d="M 57.6 307.584 
L 414.72 307.584 
" style="fill: none; stroke: #000000; stroke-width: 0.8; stroke-linejoin: miter; stroke-linecap: square"/>
   </g>
   <g id="patch_6">
    <path d="M 57.6 41.472 
L 414.72 41.472 
" style="fill: none; stroke: #000000; stroke-width: 0.8; stroke-linejoin: miter; stroke-linecap: square"/>
   </g>
   <g id="text_14">
    <!-- Train Loss -->
    <g transform="translate(206.7 35.472) scale(0.12 -0.12)">
     <defs>
      <path id="DejaVuSans-54" d="M -19 4666 
L 3928 4666 
L 3928 4134 
L 2272 4134 
L 2272 0 
L 1638 0 
L 1638 4134 
L -19 4134 
L -19 4666 
z
" transform="scale(0.015625)"/>
      <path id="DejaVuSans-72" d="M 2631 2963 
Q 2534 3019 2420 3045 
Q 2306 3072 2169 3072 
Q 1681 3072 1420 2755 
Q 1159 2438 1159 1844 
L 1159 0 
L 581 0 
L 581 3500 
L 1159 3500 
L 1159 2956 
Q 1341 3275 1631 3429 
Q 1922 3584 2338 3584 
Q 2397 3584 2469 3576 
Q 2541 3569 2628 3553 
L 2631 2963 
z
" transform="scale(0.015625)"/>
      <path id="DejaVuSans-61" d="M 2194 1759 
Q 1497 1759 1228 1600 
Q 959 1441 959 1056 
Q 959 750 1161 570 
Q 1363 391 1709 391 
Q 2188 391 2477 730 
Q 2766 1069 2766 1631 
L 2766 1759 
L 2194 1759 
z
M 3341 1997 
L 3341 0 
L 2766 0 
L 2766 531 
Q 2569 213 2275 61 
Q 1981 -91 1556 -91 
Q 1019 -91 701 211 
Q 384 513 384 1019 
Q 384 1609 779 1909 
Q 1175 2209 1959 2209 
L 2766 2209 
L 2766 2266 
Q 2766 2663 2505 2880 
Q 2244 3097 1772 3097 
Q 1472 3097 1187 3025 
Q 903 2953 641 2809 
L 641 3341 
Q 956 3463 1253 3523 
Q 1550 3584 1831 3584 
Q 2591 3584 2966 3190 
Q 3341 2797 3341 1997 
z
" transform="scale(0.015625)"/>
      <path id="DejaVuSans-69" d="M 603 3500 
L 1178 3500 
L 1178 0 
L 603 0 
L 603 3500 
z
M 603 4863 
L 1178 4863 
L 1178 4134 
L 603 4134 
L 603 4863 
z
" transform="scale(0.015625)"/>
      <path id="DejaVuSans-6e" d="M 3513 2113 
L 3513 0 
L 2938 0 
L 2938 2094 
Q 2938 2591 2744 2837 
Q 2550 3084 2163 3084 
Q 1697 3084 1428 2787 
Q 1159 2491 1159 1978 
L 1159 0 
L 581 0 
L 581 3500 
L 1159 3500 
L 1159 2956 
Q 1366 3272 1645 3428 
Q 1925 3584 2291 3584 
Q 2894 3584 3203 3211 
Q 3513 2838 3513 2113 
z
" transform="scale(0.015625)"/>
      <path id="DejaVuSans-20" transform="scale(0.015625)"/>
      <path id="DejaVuSans-4c" d="M 628 4666 
L 1259 4666 
L 1259 531 
L 3531 531 
L 3531 0 
L 628 0 
L 628 4666 
z
" transform="scale(0.015625)"/>
      <path id="DejaVuSans-6f" d="M 1959 3097 
Q 1497 3097 1228 2736 
Q 959 2375 959 1747 
Q 959 1119 1226 758 
Q 1494 397 1959 397 
Q 2419 397 2687 759 
Q 2956 1122 2956 1747 
Q 2956 2369 2687 2733 
Q 2419 3097 1959 3097 
z
M 1959 3584 
Q 2709 3584 3137 3096 
Q 3566 2609 3566 1747 
Q 3566 888 3137 398 
Q 2709 -91 1959 -91 
Q 1206 -91 779 398 
Q 353 888 353 1747 
Q 353 2609 779 3096 
Q 1206 3584 1959 3584 
z
" transform="scale(0.015625)"/>
      <path id="DejaVuSans-73" d="M 2834 3397 
L 2834 2853 
Q 2591 2978 2328 3040 
Q 2066 3103 1784 3103 
Q 1356 3103 1142 2972 
Q 928 2841 928 2578 
Q 928 2378 1081 2264 
Q 1234 2150 1697 2047 
L 1894 2003 
Q 2506 1872 2764 1633 
Q 3022 1394 3022 966 
Q 3022 478 2636 193 
Q 2250 -91 1575 -91 
Q 1294 -91 989 -36 
Q 684 19 347 128 
L 347 722 
Q 666 556 975 473 
Q 1284 391 1588 391 
Q 1994 391 2212 530 
Q 2431 669 2431 922 
Q 2431 1156 2273 1281 
Q 2116 1406 1581 1522 
L 1381 1569 
Q 847 1681 609 1914 
Q 372 2147 372 2553 
Q 372 3047 722 3315 
Q 1072 3584 1716 3584 
Q 2034 3584 2315 3537 
Q 2597 3491 2834 3397 
z
" transform="scale(0.015625)"/>
     </defs>
     <use xlink:href="#DejaVuSans-54"/>
     <use xlink:href="#DejaVuSans-72" x="46.333984"/>
     <use xlink:href="#DejaVuSans-61" x="87.447266"/>
     <use xlink:href="#DejaVuSans-69" x="148.726562"/>
     <use xlink:href="#DejaVuSans-6e" x="176.509766"/>
     <use xlink:href="#DejaVuSans-20" x="239.888672"/>
     <use xlink:href="#DejaVuSans-4c" x="271.675781"/>
     <use xlink:href="#DejaVuSans-6f" x="325.638672"/>
     <use xlink:href="#DejaVuSans-73" x="386.820312"/>
     <use xlink:href="#DejaVuSans-73" x="438.919922"/>
    </g>
   </g>
   <g id="legend_1">
    <g id="patch_7">
     <path d="M 335.402813 78.82825 
L 407.72 78.82825 
Q 409.72 78.82825 409.72 76.82825 
L 409.72 48.472 
Q 409.72 46.472 407.72 46.472 
L 335.402813 46.472 
Q 333.402813 46.472 333.402813 48.472 
L 333.402813 76.82825 
Q 333.402813 78.82825 335.402813 78.82825 
z
" style="fill: #ffffff; opacity: 0.8; stroke: #cccccc; stroke-linejoin: miter"/>
    </g>
    <g id="line2d_16">
     <path d="M 337.402813 54.570437 
L 347.402813 54.570437 
L 357.402813 54.570437 
" style="fill: none; stroke: #1f77b4; stroke-width: 1.5; stroke-linecap: square"/>
    </g>
    <g id="text_15">
     <!-- Phi-3 -->
     <g transform="translate(365.402813 58.070437) scale(0.1 -0.1)">
      <defs>
       <path id="DejaVuSans-50" d="M 1259 4147 
L 1259 2394 
L 2053 2394 
Q 2494 2394 2734 2622 
Q 2975 2850 2975 3272 
Q 2975 3691 2734 3919 
Q 2494 4147 2053 4147 
L 1259 4147 
z
M 628 4666 
L 2053 4666 
Q 2838 4666 3239 4311 
Q 3641 3956 3641 3272 
Q 3641 2581 3239 2228 
Q 2838 1875 2053 1875 
L 1259 1875 
L 1259 0 
L 628 0 
L 628 4666 
z
" transform="scale(0.015625)"/>
       <path id="DejaVuSans-68" d="M 3513 2113 
L 3513 0 
L 2938 0 
L 2938 2094 
Q 2938 2591 2744 2837 
Q 2550 3084 2163 3084 
Q 1697 3084 1428 2787 
Q 1159 2491 1159 1978 
L 1159 0 
L 581 0 
L 581 4863 
L 1159 4863 
L 1159 2956 
Q 1366 3272 1645 3428 
Q 1925 3584 2291 3584 
Q 2894 3584 3203 3211 
Q 3513 2838 3513 2113 
z
" transform="scale(0.015625)"/>
       <path id="DejaVuSans-2d" d="M 313 2009 
L 1997 2009 
L 1997 1497 
L 313 1497 
L 313 2009 
z
" transform="scale(0.015625)"/>
      </defs>
      <use xlink:href="#DejaVuSans-50"/>
      <use xlink:href="#DejaVuSans-68" x="60.302734"/>
      <use xlink:href="#DejaVuSans-69" x="123.681641"/>
      <use xlink:href="#DejaVuSans-2d" x="151.464844"/>
      <use xlink:href="#DejaVuSans-33" x="187.548828"/>
     </g>
    </g>
    <g id="line2d_17">
     <path d="M 337.402813 69.248562 
L 347.402813 69.248562 
L 357.402813 69.248562 
" style="fill: none; stroke: #ff7f0e; stroke-width: 1.5; stroke-linecap: square"/>
    </g>
    <g id="text_16">
     <!-- Llama-3 -->
     <g transform="translate(365.402813 72.748562) scale(0.1 -0.1)">
      <defs>
       <path id="DejaVuSans-6c" d="M 603 4863 
L 1178 4863 
L 1178 0 
L 603 0 
L 603 4863 
z
" transform="scale(0.015625)"/>
       <path id="DejaVuSans-6d" d="M 3328 2828 
Q 3544 3216 3844 3400 
Q 4144 3584 4550 3584 
Q 5097 3584 5394 3201 
Q 5691 2819 5691 2113 
L 5691 0 
L 5113 0 
L 5113 2094 
Q 5113 2597 4934 2840 
Q 4756 3084 4391 3084 
Q 3944 3084 3684 2787 
Q 3425 2491 3425 1978 
L 3425 0 
L 2847 0 
L 2847 2094 
Q 2847 2600 2669 2842 
Q 2491 3084 2119 3084 
Q 1678 3084 1418 2786 
Q 1159 2488 1159 1978 
L 1159 0 
L 581 0 
L 581 3500 
L 1159 3500 
L 1159 2956 
Q 1356 3278 1631 3431 
Q 1906 3584 2284 3584 
Q 2666 3584 2933 3390 
Q 3200 3197 3328 2828 
z
" transform="scale(0.015625)"/>
      </defs>
      <use xlink:href="#DejaVuSans-4c"/>
      <use xlink:href="#DejaVuSans-6c" x="55.712891"/>
      <use xlink:href="#DejaVuSans-61" x="83.496094"/>
      <use xlink:href="#DejaVuSans-6d" x="144.775391"/>
      <use xlink:href="#DejaVuSans-61" x="242.1875"/>
      <use xlink:href="#DejaVuSans-2d" x="303.466797"/>
      <use xlink:href="#DejaVuSans-33" x="339.550781"/>
     </g>
    </g>
   </g>
  </g>
 </g>
 <defs>
  <clipPath id="p514e5bea46">
   <rect x="57.6" y="41.472" width="357.12" height="266.112"/>
  </clipPath>
 </defs>
</svg>
