<?xml version="1.0" encoding="utf-8" standalone="no"?>
<!DOCTYPE svg PUBLIC "-//W3C//DTD SVG 1.1//EN"
  "http://www.w3.org/Graphics/SVG/1.1/DTD/svg11.dtd">
<svg xmlns:xlink="http://www.w3.org/1999/xlink" width="460.8pt" height="345.6pt" viewBox="0 0 460.8 345.6" xmlns="http://www.w3.org/2000/svg" version="1.1">
 <metadata>
  <rdf:RDF xmlns:dc="http://purl.org/dc/elements/1.1/" xmlns:cc="http://creativecommons.org/ns#" xmlns:rdf="http://www.w3.org/1999/02/22-rdf-syntax-ns#">
   <cc:Work>
    <dc:type rdf:resource="http://purl.org/dc/dcmitype/StillImage"/>
    <dc:date>2024-05-13T17:21:37.627800</dc:date>
    <dc:format>image/svg+xml</dc:format>
    <dc:creator>
     <cc:Agent>
      <dc:title>Matplotlib v3.8.2, https://matplotlib.org/</dc:title>
     </cc:Agent>
    </dc:creator>
   </cc:Work>
  </rdf:RDF>
 </metadata>
 <defs>
  <style type="text/css">*{stroke-linejoin: round; stroke-linecap: butt}</style>
 </defs>
 <g id="figure_1">
  <g id="patch_1">
   <path d="M 0 345.6
L 460.8 345.6
L 460.8 0
L 0 0
z
" style="fill: #ffffff"/>
  </g>
  <g id="axes_1">
   <g id="patch_2">
    <path d="M 57.6 307.584
L 414.72 307.584
L 414.72 41.472
L 57.6 41.472
z
" style="fill: #ffffff"/>
   </g>
   <g id="matplotlib.axis_1">
    <g id="xtick_1">
     <g id="line2d_1">
      <defs>
       <path id="m7902f6c549" d="M 0 0
L 0 3.5
" style="stroke: #000000; stroke-width: 0.8"/>
      </defs>
      <g>
       <use xlink:href="#m7902f6c549" x="70.881322" y="307.584" style="stroke: #000000; stroke-width: 0.8"/>
      </g>
     </g>
     <g id="text_1">
      <!-- 0 -->
      <g transform="translate(67.700072 322.182437) scale(0.1 -0.1)">
       <defs>
        <path id="DejaVuSans-30" d="M 2034 4250
Q 1547 4250 1301 3770
Q 1056 3291 1056 2328
Q 1056 1369 1301 889
Q 1547 409 2034 409
Q 2525 409 2770 889
Q 3016 1369 3016 2328
Q 3016 3291 2770 3770
Q 2525 4250 2034 4250
z
M 2034 4750
Q 2819 4750 3233 4129
Q 3647 3509 3647 2328
Q 3647 1150 3233 529
Q 2819 -91 2034 -91
Q 1250 -91 836 529
Q 422 1150 422 2328
Q 422 3509 836 4129
Q 1250 4750 2034 4750
z
" transform="scale(0.015625)"/>
       </defs>
       <use xlink:href="#DejaVuSans-30"/>
      </g>
     </g>
    </g>
    <g id="xtick_2">
     <g id="line2d_2">
      <g>
       <use xlink:href="#m7902f6c549" x="136.468099" y="307.584" style="stroke: #000000; stroke-width: 0.8"/>
      </g>
     </g>
     <g id="text_2">
      <!-- 200 -->
      <g transform="translate(126.924349 322.182437) scale(0.1 -0.1)">
       <defs>
        <path id="DejaVuSans-32" d="M 1228 531
L 3431 531
L 3431 0
L 469 0
L 469 531
Q 828 903 1448 1529
Q 2069 2156 2228 2338
Q 2531 2678 2651 2914
Q 2772 3150 2772 3378
Q 2772 3750 2511 3984
Q 2250 4219 1831 4219
Q 1534 4219 1204 4116
Q 875 4013 500 3803
L 500 4441
Q 881 4594 1212 4672
Q 1544 4750 1819 4750
Q 2544 4750 2975 4387
Q 3406 4025 3406 3419
Q 3406 3131 3298 2873
Q 3191 2616 2906 2266
Q 2828 2175 2409 1742
Q 1991 1309 1228 531
z
" transform="scale(0.015625)"/>
       </defs>
       <use xlink:href="#DejaVuSans-32"/>
       <use xlink:href="#DejaVuSans-30" x="63.623047"/>
       <use xlink:href="#DejaVuSans-30" x="127.246094"/>
      </g>
     </g>
    </g>
    <g id="xtick_3">
     <g id="line2d_3">
      <g>
       <use xlink:href="#m7902f6c549" x="202.054876" y="307.584" style="stroke: #000000; stroke-width: 0.8"/>
      </g>
     </g>
     <g id="text_3">
      <!-- 400 -->
      <g transform="translate(192.511126 322.182437) scale(0.1 -0.1)">
       <defs>
        <path id="DejaVuSans-34" d="M 2419 4116
L 825 1625
L 2419 1625
L 2419 4116
z
M 2253 4666
L 3047 4666
L 3047 1625
L 3713 1625
L 3713 1100
L 3047 1100
L 3047 0
L 2419 0
L 2419 1100
L 313 1100
L 313 1709
L 2253 4666
z
" transform="scale(0.015625)"/>
       </defs>
       <use xlink:href="#DejaVuSans-34"/>
       <use xlink:href="#DejaVuSans-30" x="63.623047"/>
       <use xlink:href="#DejaVuSans-30" x="127.246094"/>
      </g>
     </g>
    </g>
    <g id="xtick_4">
     <g id="line2d_4">
      <g>
       <use xlink:href="#m7902f6c549" x="267.641653" y="307.584" style="stroke: #000000; stroke-width: 0.8"/>
      </g>
     </g>
     <g id="text_4">
      <!-- 600 -->
      <g transform="translate(258.097903 322.182437) scale(0.1 -0.1)">
       <defs>
        <path id="DejaVuSans-36" d="M 2113 2584
Q 1688 2584 1439 2293
Q 1191 2003 1191 1497
Q 1191 994 1439 701
Q 1688 409 2113 409
Q 2538 409 2786 701
Q 3034 994 3034 1497
Q 3034 2003 2786 2293
Q 2538 2584 2113 2584
z
M 3366 4563
L 3366 3988
Q 3128 4100 2886 4159
Q 2644 4219 2406 4219
Q 1781 4219 1451 3797
Q 1122 3375 1075 2522
Q 1259 2794 1537 2939
Q 1816 3084 2150 3084
Q 2853 3084 3261 2657
Q 3669 2231 3669 1497
Q 3669 778 3244 343
Q 2819 -91 2113 -91
Q 1303 -91 875 529
Q 447 1150 447 2328
Q 447 3434 972 4092
Q 1497 4750 2381 4750
Q 2619 4750 2861 4703
Q 3103 4656 3366 4563
z
" transform="scale(0.015625)"/>
       </defs>
       <use xlink:href="#DejaVuSans-36"/>
       <use xlink:href="#DejaVuSans-30" x="63.623047"/>
       <use xlink:href="#DejaVuSans-30" x="127.246094"/>
      </g>
     </g>
    </g>
    <g id="xtick_5">
     <g id="line2d_5">
      <g>
       <use xlink:href="#m7902f6c549" x="333.22843" y="307.584" style="stroke: #000000; stroke-width: 0.8"/>
      </g>
     </g>
     <g id="text_5">
      <!-- 800 -->
      <g transform="translate(323.68468 322.182437) scale(0.1 -0.1)">
       <defs>
        <path id="DejaVuSans-38" d="M 2034 2216
Q 1584 2216 1326 1975
Q 1069 1734 1069 1313
Q 1069 891 1326 650
Q 1584 409 2034 409
Q 2484 409 2743 651
Q 3003 894 3003 1313
Q 3003 1734 2745 1975
Q 2488 2216 2034 2216
z
M 1403 2484
Q 997 2584 770 2862
Q 544 3141 544 3541
Q 544 4100 942 4425
Q 1341 4750 2034 4750
Q 2731 4750 3128 4425
Q 3525 4100 3525 3541
Q 3525 3141 3298 2862
Q 3072 2584 2669 2484
Q 3125 2378 3379 2068
Q 3634 1759 3634 1313
Q 3634 634 3220 271
Q 2806 -91 2034 -91
Q 1263 -91 848 271
Q 434 634 434 1313
Q 434 1759 690 2068
Q 947 2378 1403 2484
z
M 1172 3481
Q 1172 3119 1398 2916
Q 1625 2713 2034 2713
Q 2441 2713 2670 2916
Q 2900 3119 2900 3481
Q 2900 3844 2670 4047
Q 2441 4250 2034 4250
Q 1625 4250 1398 4047
Q 1172 3844 1172 3481
z
" transform="scale(0.015625)"/>
       </defs>
       <use xlink:href="#DejaVuSans-38"/>
       <use xlink:href="#DejaVuSans-30" x="63.623047"/>
       <use xlink:href="#DejaVuSans-30" x="127.246094"/>
      </g>
     </g>
    </g>
    <g id="xtick_6">
     <g id="line2d_6">
      <g>
       <use xlink:href="#m7902f6c549" x="398.815207" y="307.584" style="stroke: #000000; stroke-width: 0.8"/>
      </g>
     </g>
     <g id="text_6">
      <!-- 1000 -->
      <g transform="translate(386.090207 322.182437) scale(0.1 -0.1)">
       <defs>
        <path id="DejaVuSans-31" d="M 794 531
L 1825 531
L 1825 4091
L 703 3866
L 703 4441
L 1819 4666
L 2450 4666
L 2450 531
L 3481 531
L 3481 0
L 794 0
L 794 531
z
" transform="scale(0.015625)"/>
       </defs>
       <use xlink:href="#DejaVuSans-31"/>
       <use xlink:href="#DejaVuSans-30" x="63.623047"/>
       <use xlink:href="#DejaVuSans-30" x="127.246094"/>
       <use xlink:href="#DejaVuSans-30" x="190.869141"/>
      </g>
     </g>
    </g>
   </g>
   <g id="matplotlib.axis_2">
    <g id="ytick_1">
     <g id="line2d_7">
      <defs>
       <path id="m30c6b6f167" d="M 0 0
L -3.5 0
" style="stroke: #000000; stroke-width: 0.8"/>
      </defs>
      <g>
       <use xlink:href="#m30c6b6f167" x="57.6" y="307.584" style="stroke: #000000; stroke-width: 0.8"/>
      </g>
     </g>
     <g id="text_7">
      <!-- 0.0 -->
      <g transform="translate(34.696875 311.383219) scale(0.1 -0.1)">
       <defs>
        <path id="DejaVuSans-2e" d="M 684 794
L 1344 794
L 1344 0
L 684 0
L 684 794
z
" transform="scale(0.015625)"/>
       </defs>
       <use xlink:href="#DejaVuSans-30"/>
       <use xlink:href="#DejaVuSans-2e" x="63.623047"/>
       <use xlink:href="#DejaVuSans-30" x="95.410156"/>
      </g>
     </g>
    </g>
    <g id="ytick_2">
     <g id="line2d_8">
      <g>
       <use xlink:href="#m30c6b6f167" x="57.6" y="263.232" style="stroke: #000000; stroke-width: 0.8"/>
      </g>
     </g>
     <g id="text_8">
      <!-- 0.5 -->
      <g transform="translate(34.696875 267.031219) scale(0.1 -0.1)">
       <defs>
        <path id="DejaVuSans-35" d="M 691 4666
L 3169 4666
L 3169 4134
L 1269 4134
L 1269 2991
Q 1406 3038 1543 3061
Q 1681 3084 1819 3084
Q 2600 3084 3056 2656
Q 3513 2228 3513 1497
Q 3513 744 3044 326
Q 2575 -91 1722 -91
Q 1428 -91 1123 -41
Q 819 9 494 109
L 494 744
Q 775 591 1075 516
Q 1375 441 1709 441
Q 2250 441 2565 725
Q 2881 1009 2881 1497
Q 2881 1984 2565 2268
Q 2250 2553 1709 2553
Q 1456 2553 1204 2497
Q 953 2441 691 2322
L 691 4666
z
" transform="scale(0.015625)"/>
       </defs>
       <use xlink:href="#DejaVuSans-30"/>
       <use xlink:href="#DejaVuSans-2e" x="63.623047"/>
       <use xlink:href="#DejaVuSans-35" x="95.410156"/>
      </g>
     </g>
    </g>
    <g id="ytick_3">
     <g id="line2d_9">
      <g>
       <use xlink:href="#m30c6b6f167" x="57.6" y="218.88" style="stroke: #000000; stroke-width: 0.8"/>
      </g>
     </g>
     <g id="text_9">
      <!-- 1.0 -->
      <g transform="translate(34.696875 222.679219) scale(0.1 -0.1)">
       <use xlink:href="#DejaVuSans-31"/>
       <use xlink:href="#DejaVuSans-2e" x="63.623047"/>
       <use xlink:href="#DejaVuSans-30" x="95.410156"/>
      </g>
     </g>
    </g>
    <g id="ytick_4">
     <g id="line2d_10">
      <g>
       <use xlink:href="#m30c6b6f167" x="57.6" y="174.528" style="stroke: #000000; stroke-width: 0.8"/>
      </g>
     </g>
     <g id="text_10">
      <!-- 1.5 -->
      <g transform="translate(34.696875 178.327219) scale(0.1 -0.1)">
       <use xlink:href="#DejaVuSans-31"/>
       <use xlink:href="#DejaVuSans-2e" x="63.623047"/>
       <use xlink:href="#DejaVuSans-35" x="95.410156"/>
      </g>
     </g>
    </g>
    <g id="ytick_5">
     <g id="line2d_11">
      <g>
       <use xlink:href="#m30c6b6f167" x="57.6" y="130.176" style="stroke: #000000; stroke-width: 0.8"/>
      </g>
     </g>
     <g id="text_11">
      <!-- 2.0 -->
      <g transform="translate(34.696875 133.975219) scale(0.1 -0.1)">
       <use xlink:href="#DejaVuSans-32"/>
       <use xlink:href="#DejaVuSans-2e" x="63.623047"/>
       <use xlink:href="#DejaVuSans-30" x="95.410156"/>
      </g>
     </g>
    </g>
    <g id="ytick_6">
     <g id="line2d_12">
      <g>
       <use xlink:href="#m30c6b6f167" x="57.6" y="85.824" style="stroke: #000000; stroke-width: 0.8"/>
      </g>
     </g>
     <g id="text_12">
      <!-- 2.5 -->
      <g transform="translate(34.696875 89.623219) scale(0.1 -0.1)">
       <use xlink:href="#DejaVuSans-32"/>
       <use xlink:href="#DejaVuSans-2e" x="63.623047"/>
       <use xlink:href="#DejaVuSans-35" x="95.410156"/>
      </g>
     </g>
    </g>
    <g id="ytick_7">
     <g id="line2d_13">
      <g>
       <use xlink:href="#m30c6b6f167" x="57.6" y="41.472" style="stroke: #000000; stroke-width: 0.8"/>
      </g>
     </g>
     <g id="text_13">
      <!-- 3.0 -->
      <g transform="translate(34.696875 45.271219) scale(0.1 -0.1)">
       <defs>
        <path id="DejaVuSans-33" d="M 2597 2516
Q 3050 2419 3304 2112
Q 3559 1806 3559 1356
Q 3559 666 3084 287
Q 2609 -91 1734 -91
Q 1441 -91 1130 -33
Q 819 25 488 141
L 488 750
Q 750 597 1062 519
Q 1375 441 1716 441
Q 2309 441 2620 675
Q 2931 909 2931 1356
Q 2931 1769 2642 2001
Q 2353 2234 1838 2234
L 1294 2234
L 1294 2753
L 1863 2753
Q 2328 2753 2575 2939
Q 2822 3125 2822 3475
Q 2822 3834 2567 4026
Q 2313 4219 1838 4219
Q 1578 4219 1281 4162
Q 984 4106 628 3988
L 628 4550
Q 988 4650 1302 4700
Q 1616 4750 1894 4750
Q 2613 4750 3031 4423
Q 3450 4097 3450 3541
Q 3450 3153 3228 2886
Q 3006 2619 2597 2516
z
" transform="scale(0.015625)"/>
       </defs>
       <use xlink:href="#DejaVuSans-33"/>
       <use xlink:href="#DejaVuSans-2e" x="63.623047"/>
       <use xlink:href="#DejaVuSans-30" x="95.410156"/>
      </g>
     </g>
    </g>
   </g>
   <g id="line2d_14">
    <path d="M 73.832727 94.660692
L 74.160661 89.410303
L 74.488595 93.419724
L 74.816529 91.176399
L 75.472397 101.119231
L 75.800331 101.279785
L 76.128264 110.905056
L 76.456198 103.669471
L 76.784132 114.66788
L 77.112066 111.882574
L 77.44 117.228764
L 77.767934 126.566634
L 78.095868 130.933532
L 78.423802 141.263113
L 78.751736 144.22494
L 79.079669 145.867738
L 79.407603 138.754564
L 79.735537 149.392835
L 80.063471 146.318354
L 80.391405 149.974733
L 80.719339 156.065149
L 81.047273 150.121094
L 81.375207 154.220106
L 81.70314 150.831613
L 82.359008 136.894441
L 82.686942 146.209248
L 83.014876 146.911784
L 83.34281 146.124092
L 83.670744 142.336431
L 83.998678 136.117394
L 84.326612 138.427246
L 84.654545 134.80901
L 84.982479 133.305477
L 85.310413 136.238031
L 85.638347 141.940812
L 85.966281 139.552013
L 86.294215 138.317253
L 86.622149 141.007645
L 86.950083 145.440184
L 87.278017 145.737343
L 87.60595 140.999662
L 88.261818 135.831767
L 88.589752 135.441469
L 88.917686 141.023612
L 89.24562 143.800934
L 89.573554 139.255741
L 89.901488 142.179425
L 90.229421 139.618541
L 90.557355 148.15364
L 90.885289 147.46441
L 91.213223 148.367416
L 91.541157 155.934755
L 91.869091 160.719448
L 92.197025 153.0501
L 92.524959 152.87358
L 92.852893 159.341875
L 93.180826 150.561066
L 93.50876 152.056616
L 93.836694 151.074662
L 94.164628 150.614289
L 94.820496 144.982472
L 95.14843 143.422168
L 95.804298 146.93396
L 96.132231 148.204201
L 96.788099 164.315508
L 97.116033 165.139569
L 97.771901 176.997519
L 98.099835 175.179087
L 98.427769 181.470862
L 99.083636 174.467681
L 99.41157 176.270147
L 99.739504 166.785028
L 100.067438 165.332056
L 100.395372 155.82831
L 100.723306 150.798793
L 101.05124 153.435076
L 101.379174 159.280669
L 101.707107 154.422351
L 102.035041 163.561524
L 102.362975 166.3078
L 102.690909 157.627227
L 103.018843 157.741655
L 103.346777 157.26354
L 104.002645 175.414153
L 104.658512 164.102619
L 104.986446 158.277427
L 105.31438 156.000396
L 105.642314 156.01104
L 105.970248 153.145901
L 106.298182 158.787475
L 106.95405 157.577553
L 107.281983 153.16098
L 107.937851 148.354998
L 108.265785 151.714218
L 108.593719 153.188479
L 108.921653 146.234972
L 109.249587 153.360564
L 109.577521 154.393966
L 109.905455 155.016668
L 110.233388 157.306118
L 110.561322 157.80907
L 110.889256 159.191078
L 111.21719 164.66855
L 111.545124 167.418374
L 111.873058 164.452113
L 112.200992 173.252436
L 112.528926 170.724372
L 112.85686 169.807173
L 113.184793 172.227905
L 113.512727 164.575411
L 114.168595 165.984918
L 114.496529 164.850394
L 115.480331 145.653074
L 115.808264 149.405253
L 116.136198 146.680266
L 116.464132 142.426909
L 116.792066 147.550452
L 117.12 147.334015
L 117.447934 145.054322
L 117.775868 147.709233
L 118.103802 156.404886
L 118.759669 166.126844
L 119.087603 166.852443
L 119.415537 174.750647
L 119.743471 169.917166
L 120.071405 173.148653
L 120.399339 171.781724
L 121.055207 183.16777
L 121.38314 181.242893
L 121.711074 187.901902
L 122.039008 186.461349
L 122.366942 190.643743
L 122.694876 180.724861
L 123.02281 183.570486
L 123.350744 183.034714
L 123.678678 183.751442
L 124.006612 179.272777
L 124.334545 176.434249
L 124.662479 178.886915
L 124.990413 176.933652
L 125.318347 182.774811
L 125.646281 172.863026
L 125.974215 179.829838
L 126.302149 183.754103
L 126.630083 178.603062
L 126.958017 186.754959
L 127.28595 187.143483
L 127.613884 177.298226
L 127.941818 177.763922
L 128.269752 170.974518
L 128.597686 156.400451
L 128.92562 163.080749
L 129.253554 159.835069
L 129.581488 158.38742
L 129.909421 168.450002
L 130.237355 156.997428
L 130.893223 167.956808
L 131.221157 167.189518
L 131.877025 189.321166
L 132.204959 191.656742
L 132.860826 173.985132
L 133.18876 168.321381
L 133.516694 171.947601
L 134.172562 168.625636
L 134.500496 171.591011
L 134.82843 169.272288
L 135.156364 164.125682
L 135.484298 161.638422
L 135.812231 173.362429
L 136.140165 180.540357
L 136.468099 174.700086
L 136.796033 171.142168
L 137.123967 170.463583
L 137.451901 174.600737
L 137.779835 173.844979
L 138.107769 171.999936
L 138.435702 173.978035
L 138.763636 169.164956
L 139.09157 162.006543
L 139.419504 165.394149
L 139.747438 172.140088
L 140.075372 168.146634
L 140.403306 170.405925
L 140.73124 174.150121
L 141.059174 176.370382
L 141.387107 170.835252
L 141.715041 163.056799
L 142.042975 163.157034
L 142.370909 171.072092
L 142.698843 163.468385
L 143.026777 163.498545
L 143.354711 174.586545
L 143.682645 172.38846
L 144.010579 165.151987
L 144.338512 149.233167
L 144.666446 159.70911
L 144.99438 159.836844
L 145.322314 167.778513
L 145.650248 166.172083
L 145.978182 174.316884
L 146.306116 169.336155
L 146.961983 154.36292
L 147.617851 179.749117
L 147.945785 171.76487
L 148.273719 175.995164
L 148.601653 165.565348
L 148.929587 163.777075
L 149.257521 164.702258
L 149.585455 168.599025
L 150.241322 164.517754
L 150.569256 153.018167
L 150.89719 148.106627
L 151.225124 154.469364
L 151.880992 169.463889
L 152.208926 171.967116
L 152.53686 172.548127
L 152.864793 171.845591
L 153.520661 199.241821
L 153.848595 188.336552
L 154.176529 182.888352
L 154.504463 181.289906
L 155.160331 189.660015
L 155.488264 193.508882
L 155.816198 189.117147
L 156.144132 178.397268
L 156.472066 175.258034
L 156.8 170.742113
L 157.127934 185.215058
L 157.455868 183.013425
L 157.783802 182.869724
L 158.111736 173.911507
L 158.767603 165.504142
L 159.095537 165.430518
L 159.423471 182.296696
L 159.751405 181.618998
L 160.407273 187.449512
L 160.735207 196.933743
L 161.06314 188.658547
L 161.391074 183.417028
L 161.719008 183.433882
L 162.046942 183.69201
L 162.374876 177.988343
L 162.70281 176.813015
L 163.030744 167.905359
L 163.358678 168.484596
L 163.686612 167.498208
L 164.014545 171.033949
L 164.342479 183.619273
L 164.670413 180.213039
L 164.998347 181.898415
L 165.326281 185.936221
L 165.654215 198.065606
L 165.982149 187.540877
L 166.638017 199.010304
L 166.96595 194.072152
L 167.293884 194.626552
L 167.621818 190.037007
L 167.949752 199.732355
L 168.277686 204.382218
L 168.60562 196.382004
L 168.933554 197.477499
L 169.261488 209.140301
L 169.917355 185.815584
L 170.245289 183.370902
L 170.573223 189.492365
L 170.901157 193.070684
L 171.229091 190.181595
L 171.557025 186.078148
L 171.884959 191.134276
L 172.212893 177.9023
L 172.540826 171.969777
L 173.196694 174.978616
L 173.524628 181.650931
L 173.852562 174.730245
L 174.180496 159.444772
L 174.50843 162.834152
L 174.836364 162.761414
L 175.164298 165.186582
L 175.492231 178.209216
L 175.820165 180.788728
L 176.148099 190.900984
L 176.476033 186.291037
L 176.803967 184.026424
L 177.131901 180.739941
L 177.459835 185.525522
L 177.787769 181.674881
L 178.443636 172.497565
L 178.77157 172.162264
L 179.427438 154.014313
L 179.755372 153.923835
L 180.083306 142.399411
L 180.41124 137.487871
L 180.739174 149.882481
L 181.067107 150.140609
L 181.395041 156.285135
L 182.050909 152.737862
L 182.378843 157.014282
L 182.706777 159.089069
L 183.034711 167.283544
L 183.362645 183.84192
L 183.690579 186.687544
L 184.018512 179.792582
L 184.346446 187.425562
L 184.67438 183.299939
L 185.002314 181.742296
L 185.330248 174.685006
L 185.986116 191.179515
L 186.31405 185.866145
L 186.641983 187.573697
L 186.969917 184.365274
L 187.297851 183.140271
L 187.625785 181.116046
L 187.953719 188.302844
L 188.281653 189.581956
L 188.609587 192.657324
L 188.937521 183.857887
L 189.265455 180.003698
L 189.593388 183.477347
L 189.921322 180.684945
L 190.249256 185.860823
L 190.905124 201.508209
L 191.233058 195.778817
L 191.560992 201.404425
L 191.888926 196.192178
L 192.544793 208.410267
L 192.872727 216.886821
L 193.200661 217.647901
L 193.528595 220.127178
L 194.184463 208.397848
L 194.512397 213.490345
L 194.840331 216.334195
L 195.168264 221.359277
L 195.824132 218.45156
L 196.152066 210.110723
L 196.48 212.692896
L 196.807934 216.766184
L 197.135868 218.584616
L 197.463802 219.622452
L 197.791736 219.879694
L 198.119669 217.362275
L 198.447603 227.189791
L 198.775537 229.129747
L 199.103471 224.445289
L 199.431405 223.752511
L 199.759339 210.484166
L 200.087273 213.4318
L 200.415207 205.630284
L 200.74314 205.114913
L 201.071074 201.72642
L 201.726942 178.470893
L 202.38281 172.154281
L 202.710744 176.729633
L 203.038678 191.419016
L 203.366612 184.095613
L 203.694545 188.709108
L 204.022479 187.089373
L 204.350413 186.917288
L 204.678347 189.459544
L 205.006281 200.276997
L 205.334215 202.489275
L 205.662149 207.090351
L 205.990083 197.484595
L 206.318017 182.330404
L 206.64595 174.617591
L 206.973884 178.3609
L 207.301818 174.263662
L 207.629752 167.607314
L 207.957686 180.106595
L 208.28562 175.610189
L 208.613554 178.72636
L 208.941488 183.553632
L 209.269421 190.428192
L 209.597355 193.561217
L 209.925289 201.478936
L 210.253223 200.001128
L 210.909091 210.695282
L 211.237025 209.5031
L 211.564959 206.000179
L 211.892893 199.461807
L 212.220826 203.794998
L 212.54876 202.276385
L 213.204628 208.247052
L 213.532562 206.343464
L 213.860496 205.097172
L 214.18843 211.066065
L 214.844298 197.338234
L 215.172231 203.716938
L 215.500165 203.337285
L 216.156033 213.753796
L 216.483967 210.274825
L 216.811901 208.468812
L 217.139835 213.949832
L 217.467769 210.941879
L 217.795702 215.319421
L 218.123636 213.691703
L 218.45157 197.873119
L 218.779504 198.123264
L 219.435372 179.768632
L 219.763306 178.485972
L 220.09124 175.823078
L 220.419174 172.122348
L 220.747107 170.918634
L 221.075041 169.194228
L 221.402975 179.273664
L 221.730909 181.362643
L 222.058843 177.446362
L 222.386777 188.802248
L 222.714711 192.8711
L 223.042645 186.088792
L 223.370579 183.720396
L 223.698512 177.327498
L 224.026446 183.827727
L 224.35438 186.283054
L 224.682314 186.451592
L 225.010248 192.722964
L 225.338182 183.451622
L 225.666116 179.871529
L 225.99405 173.795305
L 226.321983 177.633527
L 226.649917 177.619334
L 226.977851 178.093014
L 227.633719 167.103475
L 227.961653 162.84657
L 228.289587 155.620742
L 228.617521 162.986723
L 228.945455 152.757377
L 229.601322 173.415652
L 229.929256 178.583547
L 230.585124 170.631233
L 230.913058 167.211694
L 231.240992 160.317619
L 231.568926 173.525645
L 231.89686 167.362491
L 232.224793 182.647964
L 232.552727 181.444251
L 232.880661 176.031533
L 233.208595 173.442263
L 233.536529 173.928361
L 233.864463 177.832224
L 234.192397 177.970602
L 234.520331 185.552133
L 234.848264 177.865932
L 235.176198 176.483923
L 235.504132 170.529224
L 235.832066 173.515
L 236.16 172.387572
L 236.487934 166.854217
L 236.815868 172.482486
L 237.143802 160.828554
L 237.471736 168.347992
L 237.799669 171.730276
L 238.455537 184.563971
L 238.783471 187.771507
L 239.111405 187.172755
L 239.439339 181.238458
L 239.767273 182.012844
L 240.095207 178.624351
L 240.42314 184.814116
L 240.751074 183.205912
L 241.406942 192.104698
L 241.734876 194.671791
L 242.06281 190.045878
L 242.390744 179.648882
L 242.718678 183.445413
L 243.374545 188.084632
L 243.702479 199.554947
L 244.358347 197.17147
L 244.686281 181.833661
L 245.342149 178.179057
L 245.670083 178.4088
L 245.998017 172.605784
L 246.32595 178.220748
L 246.653884 186.267974
L 247.309752 173.572658
L 247.637686 161.487625
L 247.96562 175.674056
L 248.293554 170.311012
L 248.621488 170.095461
L 248.949421 184.688156
L 249.277355 193.659679
L 249.605289 198.031899
L 249.933223 186.486186
L 250.261157 190.021928
L 250.917025 210.426509
L 251.244959 212.157124
L 251.572893 219.200221
L 251.900826 219.684545
L 252.22876 215.779795
L 252.556694 220.628356
L 252.884628 213.338661
L 253.212562 209.629947
L 253.540496 212.448073
L 253.86843 196.420147
L 254.196364 197.308074
L 254.524298 184.915238
L 254.852231 188.817327
L 255.180165 186.50304
L 255.836033 164.172695
L 256.163967 165.442049
L 256.491901 173.805062
L 256.819835 173.989567
L 257.147769 183.174866
L 257.475702 182.641755
L 257.803636 189.352212
L 258.13157 183.901352
L 258.459504 176.161928
L 258.787438 186.754072
L 259.77124 196.639246
L 260.099174 192.454191
L 260.427107 192.858682
L 260.755041 198.533076
L 261.082975 191.128954
L 261.410909 188.043828
L 261.738843 196.611748
L 262.066777 197.277915
L 262.394711 207.431862
L 262.722645 207.532984
L 263.050579 208.082949
L 263.378512 202.366863
L 263.706446 203.647749
L 264.03438 197.67797
L 264.362314 194.51922
L 264.690248 198.695405
L 265.018182 200.905021
L 265.67405 179.957572
L 266.001983 175.556966
L 266.329917 179.636463
L 266.657851 179.443976
L 266.985785 174.644202
L 267.313719 176.94341
L 267.641653 189.691062
L 267.969587 185.323277
L 268.297521 187.890371
L 268.953388 197.091636
L 269.281322 203.301804
L 269.609256 186.521668
L 269.93719 193.288009
L 270.265124 192.748689
L 270.593058 186.568681
L 270.920992 175.122317
L 271.248926 180.321258
L 271.57686 176.043064
L 271.904793 178.042452
L 272.232727 178.344933
L 272.888595 188.769427
L 273.216529 180.492457
L 273.544463 181.796406
L 273.872397 176.719876
L 274.200331 187.987945
L 274.856198 195.372553
L 275.184132 185.788973
L 275.512066 184.63316
L 276.495868 170.29948
L 276.823802 175.105463
L 277.151736 188.045603
L 277.479669 184.401642
L 277.807603 182.841339
L 278.135537 172.043401
L 278.463471 174.931603
L 278.791405 181.820356
L 279.119339 176.560209
L 279.447273 187.319117
L 279.775207 193.297766
L 280.10314 191.250478
L 280.431074 183.377998
L 280.759008 184.493894
L 281.414876 188.246074
L 281.74281 188.805796
L 282.070744 188.033184
L 282.398678 193.596699
L 282.726612 181.611901
L 283.054545 182.595629
L 283.382479 171.261032
L 283.710413 178.644753
L 284.038347 182.483862
L 284.366281 180.268036
L 285.022149 202.530966
L 285.350083 197.410971
L 285.678017 202.452019
L 286.333884 209.530598
L 286.661818 214.080227
L 286.989752 202.609912
L 287.317686 204.804449
L 287.64562 201.590703
L 287.973554 200.244177
L 288.629421 202.322511
L 288.957355 194.497044
L 289.285289 209.687604
L 289.941157 207.014953
L 290.269091 213.580823
L 290.597025 200.563511
L 290.924959 201.478049
L 291.252893 195.486094
L 291.580826 195.750432
L 291.90876 190.67745
L 292.236694 192.173887
L 292.892562 170.35359
L 293.220496 185.976138
L 293.54843 180.693815
L 293.876364 192.264365
L 294.532231 174.609608
L 294.860165 170.852106
L 295.188099 174.886364
L 295.516033 167.419261
L 295.843967 176.746487
L 296.171901 195.468353
L 296.499835 196.718193
L 296.827769 199.261336
L 297.155702 194.475756
L 297.483636 204.149814
L 297.81157 205.036854
L 298.139504 205.208052
L 298.467438 204.888718
L 298.795372 211.675461
L 299.123306 204.544547
L 299.45124 185.636402
L 299.779174 177.032114
L 300.107107 186.747863
L 300.435041 191.608842
L 300.762975 192.480803
L 301.090909 204.199488
L 301.418843 202.009386
L 301.746777 202.744742
L 302.730579 212.542986
L 303.058512 208.88572
L 303.386446 197.688614
L 303.71438 197.944969
L 304.042314 202.905297
L 304.370248 200.403844
L 304.698182 196.792704
L 305.026116 198.458565
L 305.35405 197.493466
L 306.009917 202.736759
L 306.337851 208.871528
L 306.665785 218.201414
L 306.993719 218.713236
L 307.321653 214.971702
L 307.649587 214.93622
L 307.977521 212.376223
L 308.305455 215.663593
L 308.633388 215.00807
L 308.961322 216.080502
L 309.289256 212.370013
L 309.61719 212.731926
L 310.600992 183.870305
L 310.928926 179.412929
L 311.25686 186.716817
L 311.584793 181.955186
L 311.912727 181.901964
L 312.240661 178.455813
L 312.568595 185.781876
L 312.896529 178.818612
L 313.224463 181.106289
L 313.552397 188.859018
L 314.208264 197.253078
L 314.536198 202.737646
L 314.864132 202.255983
L 315.192066 198.902085
L 315.52 187.87263
L 315.847934 196.789156
L 316.175868 199.797996
L 316.503802 200.158134
L 316.831736 198.403569
L 317.159669 203.3089
L 317.487603 195.138374
L 317.815537 192.61652
L 318.143471 199.362459
L 318.471405 203.584769
L 318.799339 204.55253
L 319.127273 200.230871
L 319.455207 199.866298
L 319.78314 201.007918
L 320.111074 197.959162
L 320.439008 200.02153
L 320.766942 212.643222
L 321.094876 211.598289
L 321.42281 211.844886
L 321.750744 215.609484
L 322.078678 230.55522
L 322.406612 220.78004
L 322.734545 215.848984
L 323.062479 219.978156
L 323.390413 214.406657
L 323.718347 203.881928
L 324.046281 206.282258
L 324.374215 198.448808
L 324.702149 195.466579
L 325.358017 176.383688
L 325.68595 187.69877
L 326.013884 191.442966
L 326.341818 187.150579
L 326.997686 197.160826
L 327.32562 185.567213
L 327.653554 182.692316
L 327.981488 173.499921
L 328.637355 183.433882
L 328.965289 174.497841
L 329.293223 180.601563
L 329.949091 166.463919
L 330.277025 161.69874
L 330.604959 162.877617
L 330.932893 161.442386
L 331.260826 165.336492
L 331.58876 165.68155
L 331.916694 171.749791
L 332.244628 169.651941
L 332.900496 174.122623
L 333.22843 180.241425
L 333.556364 180.984764
L 333.884298 172.368058
L 334.212231 187.332422
L 334.540165 186.740767
L 334.868099 185.29844
L 335.196033 173.436941
L 335.523967 186.89866
L 335.851901 177.06316
L 336.179835 173.879574
L 336.507769 162.22919
L 336.835702 171.24063
L 337.163636 175.235858
L 337.49157 175.743245
L 338.147438 191.229189
L 338.475372 193.258737
L 338.803306 189.601471
L 339.13124 200.957357
L 339.787107 234.200955
L 340.115041 233.358267
L 340.442975 246.593791
L 340.770909 245.249925
L 341.426777 232.370991
L 341.754711 230.865684
L 342.082645 230.921568
L 342.410579 225.840603
L 343.066446 211.646189
L 343.39438 217.147611
L 343.722314 219.696964
L 344.050248 214.536165
L 344.378182 219.274733
L 344.706116 221.934079
L 345.03405 220.736575
L 345.361983 218.046182
L 345.689917 218.487041
L 346.017851 215.870273
L 346.345785 209.860577
L 347.001653 183.24849
L 347.329587 181.036212
L 347.657521 170.780256
L 347.985455 168.504998
L 348.313388 176.718989
L 348.641322 171.422473
L 348.969256 174.603398
L 349.29719 171.481018
L 349.625124 178.729908
L 349.953058 194.314314
L 350.280992 190.781234
L 350.608926 195.612054
L 350.93686 195.330862
L 351.264793 195.234175
L 351.592727 189.775331
L 351.920661 197.944969
L 352.248595 192.583699
L 352.576529 191.62747
L 353.232397 172.766339
L 353.560331 187.184287
L 353.888264 183.292842
L 354.216198 185.929125
L 354.544132 180.818001
L 354.872066 185.367629
L 355.2 187.874404
L 355.527934 192.988189
L 355.855868 191.065087
L 356.183802 191.100568
L 356.511736 195.582781
L 356.839669 197.80393
L 357.167603 197.858926
L 357.495537 195.180952
L 357.823471 203.541304
L 358.479339 182.710057
L 358.807273 175.876301
L 359.135207 186.624564
L 359.46314 184.104484
L 359.791074 178.632334
L 360.119008 164.091974
L 360.446942 165.123602
L 360.774876 169.682988
L 361.10281 168.817236
L 361.430744 179.713636
L 362.086612 191.187498
L 362.414545 194.256657
L 362.742479 193.399776
L 363.070413 197.720548
L 363.398347 199.939035
L 363.726281 194.25577
L 364.054215 195.442629
L 364.382149 193.311072
L 364.710083 177.957297
L 365.038017 168.005595
L 365.36595 169.691858
L 365.693884 162.44208
L 366.021818 167.275561
L 366.349752 158.277427
L 366.677686 155.683722
L 367.00562 157.320311
L 367.333554 158.305812
L 367.661488 165.409229
L 367.989421 175.602205
L 368.317355 172.348543
L 368.645289 157.283942
L 368.973223 159.126324
L 369.301157 167.656988
L 369.629091 180.339886
L 369.957025 187.121307
L 370.284959 190.032572
L 370.612893 188.683384
L 370.940826 180.712443
L 371.26876 185.771232
L 371.596694 184.003361
L 371.924628 180.401979
L 372.252562 175.371575
L 372.580496 173.178812
L 372.90843 160.385034
L 373.236364 164.421066
L 373.892231 175.260695
L 374.220165 177.182911
L 374.548099 183.126966
L 374.876033 193.465417
L 375.203967 214.157399
L 375.531901 215.065728
L 375.859835 210.994214
L 376.187769 223.730335
L 376.515702 205.544241
L 376.843636 203.580334
L 377.17157 200.097815
L 377.499504 187.241944
L 378.155372 171.468599
L 378.483306 171.568835
L 378.81124 185.623096
L 379.139174 186.302569
L 379.467107 175.87364
L 379.795041 196.291526
L 380.122975 194.333829
L 380.450909 183.281311
L 380.778843 190.523992
L 381.106777 191.812861
L 381.434711 193.555008
L 381.762645 182.702074
L 382.090579 177.626431
L 382.418512 181.728991
L 382.746446 191.185724
L 383.07438 176.761567
L 383.402314 170.939036
L 383.730248 175.025629
L 384.058182 169.977485
L 384.386116 157.825924
L 385.041983 175.760099
L 385.369917 179.118432
L 385.697851 179.218668
L 386.025785 174.716052
L 386.681653 199.151343
L 387.665455 236.995131
L 387.993388 239.363528
L 388.321322 232.745322
L 388.649256 231.043092
L 388.97719 231.531852
L 389.305124 235.75771
L 390.288926 221.039055
L 390.61686 206.169604
L 390.944793 200.251273
L 391.272727 201.048722
L 391.600661 213.244635
L 391.928595 217.733944
L 392.256529 214.78631
L 392.584463 206.027677
L 392.912397 203.286724
L 393.240331 194.62123
L 393.568264 191.657629
L 393.896198 192.685709
L 394.224132 204.691795
L 395.207934 162.186612
L 395.535868 160.901292
L 395.863802 168.25574
L 396.191736 162.163549
L 396.847603 169.679439
L 397.175537 168.836751
L 397.831405 157.435626
L 398.159339 152.841646
L 398.487273 158.969318
L 398.487273 158.969318
" clip-path="url(#pdbfd7d7e38)" style="fill: none; stroke: #1f77b4; stroke-width: 1.5; stroke-linecap: square"/>
   </g>
   <g id="line2d_15">
    <path d="M 73.832727 59.163126
L 74.160661 57.768699
L 74.488595 63.776621
L 74.816529 63.086504
L 75.144463 68.723643
L 75.472397 64.209496
L 75.800331 63.321569
L 76.128264 59.008781
L 76.456198 57.797084
L 76.784132 65.751172
L 77.112066 61.446367
L 77.767934 67.676936
L 78.751736 88.72196
L 79.079669 91.466461
L 79.407603 90.932463
L 79.735537 99.082587
L 80.063471 97.512526
L 80.391405 98.983238
L 80.719339 107.779127
L 81.047273 110.830545
L 81.375207 115.097207
L 81.70314 111.281161
L 82.031074 109.249839
L 82.359008 105.770868
L 82.686942 112.482213
L 83.014876 111.711375
L 83.34281 113.318692
L 83.670744 115.531857
L 83.998678 104.526351
L 84.326612 102.450678
L 84.654545 97.689047
L 84.982479 98.82978
L 85.638347 102.655584
L 85.966281 100.588781
L 86.294215 93.307069
L 86.622149 92.223107
L 86.950083 93.833971
L 87.278017 93.947512
L 87.933884 83.279969
L 88.261818 81.18212
L 88.589752 80.142509
L 88.917686 92.053682
L 89.24562 90.161626
L 89.573554 94.585294
L 89.901488 94.44869
L 90.229421 92.327777
L 90.557355 95.852874
L 90.885289 97.834522
L 91.541157 107.963631
L 91.869091 110.70015
L 92.197025 102.298107
L 92.852893 107.674456
L 93.180826 106.094638
L 93.50876 106.406876
L 93.836694 113.225553
L 94.164628 115.185911
L 94.492562 111.16762
L 94.820496 114.171137
L 95.14843 109.653443
L 95.476364 111.905637
L 95.804298 117.204814
L 96.132231 113.207812
L 96.460165 117.803566
L 96.788099 124.666595
L 97.116033 123.812375
L 97.443967 123.533844
L 98.099835 130.237206
L 98.427769 135.93289
L 98.755702 132.31554
L 99.083636 132.849539
L 99.41157 138.0813
L 99.739504 127.865261
L 100.067438 128.52788
L 100.723306 109.529257
L 101.05124 116.064081
L 101.379174 112.448506
L 101.707107 100.189613
L 102.035041 98.212401
L 102.362975 90.680544
L 102.690909 85.780535
L 103.018843 86.694186
L 103.346777 83.947023
L 104.002645 101.86878
L 104.658512 85.186218
L 104.986446 95.941578
L 105.642314 109.264919
L 105.970248 109.039611
L 106.298182 114.086868
L 106.626116 103.483192
L 106.95405 107.806625
L 107.281983 109.266693
L 107.609917 109.610865
L 107.937851 112.057321
L 108.265785 105.47371
L 108.593719 101.397761
L 108.921653 89.856484
L 109.249587 94.728995
L 109.905455 111.745083
L 110.233388 108.121524
L 110.561322 111.930474
L 110.889256 110.144863
L 111.21719 119.512005
L 111.873058 113.493439
L 112.200992 124.850212
L 112.528926 124.141467
L 112.85686 119.080017
L 113.184793 119.716911
L 113.512727 115.459119
L 114.168595 110.394121
L 114.496529 104.48466
L 114.824463 104.568042
L 115.152397 105.174778
L 115.480331 103.635763
L 115.808264 108.595204
L 116.136198 106.754596
L 116.464132 103.215306
L 116.792066 105.333558
L 117.12 102.613893
L 117.447934 107.599945
L 117.775868 109.29774
L 118.431736 122.52528
L 118.759669 123.424739
L 119.087603 120.63145
L 119.415537 129.333312
L 119.743471 124.136145
L 120.071405 121.671948
L 120.399339 125.001896
L 120.727273 123.281038
L 121.055207 126.933869
L 121.38314 127.42795
L 121.711074 130.788945
L 122.366942 130.148502
L 122.694876 121.954026
L 123.02281 125.362034
L 123.350744 130.097053
L 123.678678 129.748447
L 124.006612 131.620988
L 124.334545 126.886856
L 124.662479 133.402164
L 124.990413 124.416449
L 125.318347 124.586761
L 125.646281 116.788792
L 125.974215 119.177591
L 126.302149 116.771052
L 126.630083 111.874591
L 126.958017 110.494356
L 127.28595 110.496131
L 127.613884 105.709663
L 127.941818 105.53669
L 128.269752 104.073961
L 128.597686 95.784572
L 128.92562 102.191662
L 129.253554 98.896308
L 129.581488 105.296302
L 129.909421 108.164102
L 130.237355 106.507112
L 130.565289 108.667941
L 130.893223 112.565595
L 131.221157 113.174991
L 131.877025 127.439482
L 132.204959 132.823814
L 132.532893 131.567766
L 132.860826 121.856452
L 133.18876 124.06252
L 133.516694 131.118924
L 133.844628 128.867616
L 134.500496 132.368763
L 134.82843 127.453674
L 135.156364 127.789862
L 135.484298 127.758816
L 135.812231 134.443549
L 136.140165 145.717828
L 136.468099 141.719052
L 136.796033 135.15673
L 137.123967 135.19842
L 137.451901 135.072461
L 137.779835 133.422566
L 138.107769 139.776434
L 138.435702 138.19839
L 139.09157 126.45398
L 139.747438 128.688434
L 140.075372 124.478542
L 140.403306 123.418529
L 140.73124 123.111613
L 141.059174 123.860275
L 141.387107 119.298228
L 141.715041 116.297372
L 142.042975 115.729667
L 142.370909 115.547823
L 142.698843 105.479032
L 143.026777 106.104396
L 143.354711 115.19212
L 143.682645 119.826904
L 144.010579 121.159238
L 144.338512 109.40862
L 144.666446 113.635365
L 144.99438 114.977457
L 145.322314 121.980637
L 145.650248 125.6929
L 145.978182 131.152631
L 146.306116 130.636374
L 146.63405 127.935337
L 146.961983 122.837518
L 147.289917 127.422628
L 147.617851 137.544641
L 147.945785 133.225644
L 148.273719 134.447985
L 148.601653 125.528797
L 148.929587 122.393998
L 149.257521 122.77099
L 149.585455 123.477074
L 149.913388 123.762701
L 150.89719 115.334934
L 151.225124 114.421283
L 151.880992 118.193864
L 152.208926 116.115529
L 152.53686 124.190254
L 152.864793 128.023154
L 153.192727 126.011347
L 153.520661 131.527849
L 153.848595 123.858501
L 154.176529 121.05989
L 154.832397 133.595539
L 155.160331 136.520997
L 155.488264 145.252132
L 155.816198 134.449759
L 156.144132 127.655032
L 156.472066 133.183953
L 156.8 135.963049
L 157.127934 135.904504
L 157.455868 139.999081
L 157.783802 132.124827
L 158.439669 128.636986
L 158.767603 124.761508
L 159.751405 133.98495
L 160.079339 135.427277
L 160.407273 139.718776
L 160.735207 138.12033
L 161.06314 139.424279
L 161.391074 128.702627
L 161.719008 132.271188
L 162.046942 132.377633
L 162.374876 130.223013
L 162.70281 131.222707
L 163.030744 122.147401
L 163.686612 115.852078
L 164.342479 130.439451
L 164.670413 136.423423
L 164.998347 134.50919
L 165.654215 147.755359
L 165.982149 141.769613
L 166.310083 145.469457
L 166.638017 154.631693
L 166.96595 156.914934
L 167.293884 149.963201
L 167.949752 152.989782
L 168.277686 158.06986
L 168.60562 150.638239
L 168.933554 148.733764
L 169.261488 159.466061
L 170.245289 126.507203
L 170.573223 121.478573
L 171.229091 115.897317
L 171.557025 105.895941
L 171.884959 110.500566
L 172.212893 103.440614
L 172.540826 103.126602
L 172.86876 111.471875
L 173.196694 115.97449
L 173.852562 130.529929
L 174.180496 122.491572
L 174.50843 121.13174
L 174.836364 125.623711
L 175.164298 124.162756
L 175.492231 137.143699
L 175.820165 132.28272
L 176.148099 134.031963
L 176.476033 133.551187
L 176.803967 130.375584
L 177.131901 130.859021
L 177.459835 130.497996
L 177.787769 134.633376
L 178.115702 132.839781
L 178.443636 129.917871
L 178.77157 122.857033
L 179.099504 120.036246
L 179.427438 113.232649
L 179.755372 111.385832
L 180.083306 101.589362
L 180.41124 97.744931
L 180.739174 108.622702
L 181.067107 108.345059
L 181.395041 110.210504
L 181.722975 106.013917
L 182.050909 108.225308
L 182.378843 98.54238
L 182.706777 107.752516
L 183.034711 110.633622
L 183.362645 123.019361
L 183.690579 124.4883
L 184.018512 119.496925
L 184.346446 119.915608
L 184.67438 118.576178
L 185.002314 118.637384
L 185.330248 113.792371
L 185.658182 128.89334
L 185.986116 128.993576
L 186.31405 129.290734
L 186.641983 126.257944
L 186.969917 126.394548
L 187.297851 119.945768
L 187.625785 121.06876
L 187.953719 119.346129
L 188.281653 123.565778
L 188.609587 124.516685
L 188.937521 131.094973
L 189.265455 124.474107
L 189.593388 122.827761
L 189.921322 122.431254
L 190.249256 124.850212
L 190.57719 144.032452
L 190.905124 148.4712
L 191.233058 144.952312
L 191.560992 152.187011
L 191.888926 152.904626
L 192.21686 143.270484
L 193.200661 156.957512
L 193.528595 155.144402
L 193.856529 140.877251
L 194.184463 141.390847
L 194.512397 149.736119
L 195.168264 151.770989
L 195.496198 155.840728
L 195.824132 153.756184
L 196.152066 152.568438
L 196.48 154.441866
L 196.807934 163.671517
L 197.135868 167.604653
L 197.463802 158.084052
L 197.791736 156.99388
L 198.119669 152.914383
L 198.447603 152.658029
L 198.775537 150.044809
L 199.103471 149.748538
L 199.431405 142.810111
L 199.759339 132.296913
L 200.415207 116.508488
L 200.74314 119.727556
L 201.071074 119.2317
L 201.399008 115.942556
L 201.726942 109.424586
L 202.054876 108.125073
L 202.38281 105.942954
L 203.038678 117.2811
L 203.366612 111.532193
L 204.350413 124.113082
L 204.678347 119.150093
L 205.006281 127.468754
L 205.334215 124.11042
L 205.662149 131.860489
L 206.318017 118.27902
L 206.64595 116.814516
L 206.973884 120.014957
L 207.301818 118.580613
L 207.629752 112.892913
L 207.957686 119.155415
L 208.28562 120.048664
L 208.613554 122.123451
L 208.941488 122.247636
L 209.269421 131.07191
L 209.925289 141.58777
L 210.253223 142.688586
L 210.581157 145.661057
L 210.909091 147.310065
L 211.237025 153.662158
L 211.564959 151.274246
L 211.892893 146.521486
L 212.220826 152.074356
L 212.54876 145.302693
L 212.876694 146.814209
L 213.204628 145.705409
L 213.532562 146.086836
L 213.860496 142.147492
L 214.18843 145.645978
L 214.844298 130.427919
L 215.172231 141.445843
L 215.500165 141.028047
L 215.828099 142.975987
L 216.156033 146.626157
L 216.483967 148.937783
L 216.811901 144.846755
L 217.139835 146.49931
L 217.467769 142.303611
L 218.123636 150.283423
L 218.45157 140.110848
L 218.779504 140.777902
L 219.107438 142.47481
L 219.435372 138.986081
L 219.763306 131.956289
L 220.09124 133.897133
L 220.747107 133.421679
L 221.730909 140.505581
L 222.058843 131.643164
L 222.386777 138.960357
L 222.714711 132.743094
L 223.370579 131.411647
L 223.698512 125.981188
L 224.026446 132.748416
L 224.682314 124.316214
L 225.010248 126.287217
L 225.338182 123.279264
L 225.666116 121.649772
L 225.99405 126.510751
L 226.321983 128.641421
L 226.649917 123.854953
L 226.977851 121.469702
L 227.305785 115.559355
L 227.633719 117.162236
L 227.961653 121.741137
L 228.289587 114.427492
L 228.617521 121.248829
L 228.945455 116.003762
L 229.273388 114.033646
L 229.601322 126.260605
L 229.929256 124.992138
L 230.25719 124.998348
L 230.913058 118.218701
L 231.240992 106.833542
L 231.568926 114.680298
L 231.89686 109.768758
L 232.224793 117.246505
L 232.552727 121.498088
L 232.880661 109.446762
L 233.208595 113.095158
L 233.536529 110.027773
L 233.864463 115.327837
L 234.192397 117.171107
L 234.520331 123.456672
L 234.848264 121.043923
L 235.176198 126.25617
L 235.504132 121.954913
L 235.832066 121.972654
L 236.16 124.91674
L 236.487934 128.978496
L 236.815868 135.578074
L 237.143802 125.913773
L 237.471736 125.858776
L 238.127603 140.404458
L 238.455537 142.000243
L 238.783471 135.550575
L 239.111405 138.088397
L 239.439339 136.232709
L 239.767273 128.436515
L 240.095207 130.993851
L 240.42314 135.184228
L 241.079008 124.856421
L 241.406942 113.038387
L 241.734876 108.921635
L 242.06281 117.437219
L 242.390744 112.853883
L 242.718678 116.103997
L 243.046612 123.630532
L 243.374545 123.257088
L 243.702479 126.656225
L 244.358347 140.052303
L 244.686281 139.544916
L 245.342149 131.944758
L 245.670083 135.790076
L 245.998017 127.374728
L 246.32595 123.998653
L 246.653884 122.75591
L 246.981818 123.679319
L 247.309752 123.194995
L 247.637686 110.458875
L 247.96562 118.347322
L 248.293554 121.090936
L 248.621488 117.171994
L 248.949421 116.174074
L 249.605289 126.776863
L 249.933223 126.506316
L 250.589091 123.097421
L 250.917025 131.321169
L 251.244959 136.445599
L 251.572893 136.712598
L 251.900826 136.227387
L 252.22876 138.084849
L 252.556694 140.611139
L 252.884628 138.670295
L 253.212562 127.559232
L 253.540496 135.048511
L 253.86843 131.946532
L 254.196364 132.191355
L 254.524298 124.636435
L 254.852231 124.956657
L 255.180165 128.13226
L 255.836033 117.293518
L 256.163967 113.243293
L 256.491901 125.466705
L 256.819835 125.935949
L 257.147769 136.497047
L 257.475702 134.867555
L 257.803636 144.317192
L 258.13157 146.328998
L 258.459504 141.476003
L 259.115372 147.699475
L 259.443306 149.005198
L 259.77124 151.624627
L 260.427107 142.772855
L 260.755041 146.407058
L 261.410909 136.188357
L 261.738843 140.379621
L 262.722645 160.658243
L 263.050579 161.574555
L 263.378512 158.985285
L 263.706446 161.074264
L 264.03438 164.476063
L 264.362314 154.403724
L 264.690248 151.491571
L 265.018182 155.010459
L 265.346116 141.741228
L 266.001983 126.657999
L 266.329917 130.188419
L 266.657851 126.63671
L 266.985785 121.549536
L 267.313719 114.314838
L 267.641653 125.883613
L 267.969587 128.934144
L 268.297521 128.363777
L 268.953388 134.997062
L 269.281322 138.463615
L 269.609256 119.278714
L 269.93719 122.464961
L 270.265124 119.53152
L 270.593058 114.27226
L 270.920992 106.386474
L 271.248926 109.828189
L 271.57686 104.580461
L 271.904793 104.597315
L 272.232727 107.405683
L 272.560661 116.868626
L 272.888595 122.515523
L 273.216529 119.967057
L 273.544463 124.527329
L 273.872397 125.158015
L 274.528264 140.717583
L 274.856198 144.22494
L 275.184132 141.251581
L 275.84 131.600586
L 276.167934 133.249594
L 276.495868 125.415256
L 276.823802 128.849875
L 277.151736 139.519192
L 277.479669 138.596671
L 277.807603 132.196677
L 278.135537 120.815067
L 278.463471 119.949316
L 278.791405 121.586792
L 279.119339 116.213103
L 279.775207 133.778269
L 280.10314 134.188969
L 280.431074 125.679594
L 280.759008 130.678952
L 281.74281 152.077905
L 282.398678 162.135164
L 282.726612 153.77836
L 283.054545 159.388888
L 283.382479 149.139141
L 283.710413 152.352
L 284.366281 128.074602
L 285.022149 135.246321
L 285.350083 133.58046
L 285.678017 136.928148
L 286.00595 137.501176
L 286.333884 136.79598
L 286.661818 142.902363
L 286.989752 137.282077
L 287.317686 148.941331
L 287.973554 144.813934
L 288.301488 140.890556
L 288.629421 140.16407
L 288.957355 140.013274
L 289.285289 148.256536
L 289.613223 148.296453
L 289.941157 144.613463
L 290.269091 148.310646
L 290.597025 138.962131
L 290.924959 139.000274
L 291.252893 141.55761
L 291.580826 151.466734
L 292.236694 141.249807
L 292.892562 129.74756
L 293.220496 137.81164
L 293.54843 137.998806
L 293.876364 150.228426
L 294.204298 145.841126
L 294.860165 130.176887
L 295.188099 133.269996
L 295.516033 131.955402
L 296.171901 146.837272
L 296.499835 150.446638
L 297.155702 138.469824
L 297.483636 150.216008
L 297.81157 152.611903
L 298.139504 146.620835
L 298.467438 146.764535
L 298.795372 149.626126
L 299.123306 145.869512
L 299.45124 133.222095
L 299.779174 128.520783
L 300.107107 145.908541
L 300.435041 140.977486
L 300.762975 133.74811
L 301.090909 141.282628
L 301.418843 144.766921
L 301.746777 144.222278
L 302.074711 143.451441
L 302.402645 145.646865
L 302.730579 146.970328
L 303.058512 144.603706
L 303.386446 132.178049
L 303.71438 140.278499
L 304.042314 144.674669
L 304.370248 140.064722
L 304.698182 132.586975
L 305.026116 128.154436
L 305.35405 134.352184
L 305.681983 126.291652
L 306.009917 126.455754
L 306.337851 123.160401
L 306.665785 130.409292
L 306.993719 132.954209
L 307.321653 131.24577
L 307.977521 139.586607
L 308.305455 147.520293
L 308.633388 140.171167
L 308.961322 149.952557
L 309.289256 149.615482
L 309.61719 161.240141
L 309.945124 158.021073
L 310.928926 139.136878
L 311.25686 144.780227
L 311.584793 139.304529
L 311.912727 139.339123
L 312.240661 133.885601
L 312.568595 143.896735
L 312.896529 135.729757
L 313.224463 130.962804
L 313.552397 138.604654
L 313.880331 142.506743
L 314.208264 139.606122
L 314.536198 134.466612
L 314.864132 143.343222
L 315.192066 144.147767
L 315.52 132.068943
L 315.847934 135.090202
L 316.175868 133.025172
L 316.503802 133.722386
L 316.831736 130.540573
L 317.159669 134.314929
L 317.487603 132.622456
L 318.471405 139.167037
L 318.799339 152.31297
L 319.127273 150.127304
L 319.455207 154.527022
L 319.78314 156.082003
L 320.439008 153.883918
L 320.766942 166.40094
L 321.094876 166.137489
L 321.42281 156.796957
L 321.750744 159.015444
L 322.078678 157.063956
L 322.406612 153.431528
L 322.734545 147.305629
L 323.062479 151.072888
L 323.390413 144.895542
L 323.718347 141.103446
L 324.046281 140.525983
L 324.374215 135.877893
L 324.702149 140.336156
L 325.358017 122.190866
L 325.68595 122.765668
L 326.013884 124.408466
L 326.341818 120.807084
L 326.669752 126.887743
L 326.997686 128.295475
L 327.32562 118.526504
L 327.653554 116.431315
L 327.981488 112.097238
L 328.309421 119.238797
L 328.637355 129.659743
L 328.965289 126.226898
L 329.293223 132.571008
L 329.621157 131.019575
L 329.949091 127.215948
L 330.277025 126.303183
L 330.604959 132.229498
L 330.932893 132.396261
L 331.260826 124.303795
L 331.58876 119.121708
L 331.916694 126.000703
L 332.244628 122.9688
L 332.572562 128.233382
L 332.900496 128.86939
L 333.22843 134.204936
L 333.556364 127.802281
L 333.884298 118.77044
L 334.540165 141.348269
L 334.868099 144.153976
L 335.196033 133.96987
L 335.523967 145.700087
L 335.851901 135.990547
L 336.179835 130.736609
L 336.507769 114.982779
L 336.835702 127.603584
L 337.163636 130.338328
L 337.49157 135.19842
L 337.819504 137.478113
L 338.147438 150.311808
L 338.803306 153.14324
L 339.13124 156.71535
L 339.459174 162.888261
L 339.787107 175.055789
L 340.115041 175.719295
L 340.442975 186.480864
L 340.770909 181.863821
L 341.098843 174.655734
L 341.426777 159.213254
L 341.754711 157.252009
L 342.082645 151.678737
L 342.410579 153.258555
L 343.066446 154.661852
L 343.39438 155.947173
L 343.722314 156.451012
L 344.050248 143.561434
L 344.706116 156.712689
L 345.03405 155.749363
L 345.361983 157.682223
L 346.017851 151.927108
L 346.345785 145.866851
L 347.001653 127.898968
L 347.329587 130.716207
L 347.657521 119.980362
L 347.985455 113.569724
L 348.313388 120.822163
L 348.641322 113.873979
L 348.969256 115.306548
L 349.29719 111.115284
L 349.625124 116.190927
L 349.953058 123.183464
L 350.280992 122.9688
L 350.608926 129.603859
L 350.93686 131.424952
L 351.264793 136.545834
L 351.592727 131.421404
L 351.920661 141.838802
L 352.248595 142.245953
L 352.576529 151.172237
L 353.232397 144.468876
L 353.560331 158.350164
L 353.888264 156.018136
L 354.216198 160.269719
L 354.544132 155.272136
L 354.872066 158.952465
L 355.2 160.624535
L 355.527934 159.673628
L 355.855868 150.326001
L 356.183802 148.46233
L 356.511736 151.979443
L 356.839669 147.789066
L 357.823471 155.823875
L 358.151405 151.832195
L 358.479339 142.280548
L 358.807273 146.242068
L 359.135207 153.34992
L 359.46314 154.430335
L 360.119008 142.834061
L 360.446942 145.106657
L 360.774876 135.565655
L 361.10281 135.404214
L 361.430744 138.642797
L 361.758678 133.458935
L 362.086612 130.372923
L 362.742479 126.924111
L 363.070413 131.723885
L 363.398347 129.902792
L 363.726281 123.923255
L 364.054215 123.459333
L 364.382149 120.475331
L 364.710083 106.604686
L 365.038017 108.199584
L 365.36595 110.785306
L 365.693884 110.440247
L 366.021818 114.794726
L 366.349752 106.823785
L 366.677686 104.557398
L 367.00562 107.637201
L 367.333554 114.886979
L 367.661488 119.098644
L 367.989421 131.838313
L 368.317355 136.06151
L 368.645289 126.132872
L 368.973223 127.11039
L 369.301157 128.794879
L 369.629091 134.343314
L 369.957025 137.290061
L 370.284959 137.46126
L 371.26876 146.956136
L 372.252562 128.746092
L 372.580496 127.731318
L 372.90843 122.542134
L 373.236364 122.39045
L 373.564298 129.212675
L 373.892231 122.433028
L 374.220165 124.948673
L 374.548099 130.922001
L 374.876033 134.783286
L 375.203967 151.834856
L 375.531901 151.163366
L 375.859835 151.606886
L 376.187769 158.494752
L 376.843636 147.199185
L 377.17157 139.002935
L 377.827438 113.029517
L 378.155372 111.729116
L 378.483306 110.911265
L 378.81124 118.145076
L 379.139174 116.752424
L 379.467107 116.549292
L 379.795041 125.346954
L 380.122975 126.793716
L 380.450909 132.094668
L 380.778843 139.366621
L 381.106777 141.816626
L 381.434711 141.539869
L 381.762645 133.895359
L 382.090579 135.075122
L 382.418512 138.972776
L 382.746446 141.38996
L 383.07438 137.145473
L 383.402314 130.131648
L 383.730248 137.094025
L 384.386116 124.269201
L 385.041983 137.469243
L 385.369917 141.145137
L 385.697851 138.734162
L 386.025785 130.223013
L 386.353719 140.070931
L 386.681653 144.028017
L 387.337521 148.825129
L 387.665455 155.55244
L 387.993388 155.791054
L 388.649256 143.124123
L 388.97719 138.85746
L 389.305124 146.611077
L 389.633058 139.912151
L 390.288926 146.668735
L 390.61686 142.053466
L 390.944793 139.169699
L 391.272727 137.692777
L 391.600661 141.147798
L 391.928595 149.551615
L 392.256529 152.986234
L 392.912397 146.150703
L 393.240331 138.955035
L 393.568264 135.686292
L 394.224132 141.145137
L 394.552066 138.53103
L 394.88 137.490532
L 395.207934 126.288991
L 395.863802 125.927965
L 396.191736 126.906371
L 396.519669 126.317376
L 397.175537 122.705349
L 397.503471 129.250817
L 397.831405 129.173645
L 398.159339 123.119597
L 398.487273 121.408497
L 398.487273 121.408497
" clip-path="url(#pdbfd7d7e38)" style="fill: none; stroke: #ff7f0e; stroke-width: 1.5; stroke-linecap: square"/>
   </g>
   <g id="patch_3">
    <path d="M 57.6 307.584
L 57.6 41.472
" style="fill: none; stroke: #000000; stroke-width: 0.8; stroke-linejoin: miter; stroke-linecap: square"/>
   </g>
   <g id="patch_4">
    <path d="M 414.72 307.584
L 414.72 41.472
" style="fill: none; stroke: #000000; stroke-width: 0.8; stroke-linejoin: miter; stroke-linecap: square"/>
   </g>
   <g id="patch_5">
    <path d="M 57.6 307.584
L 414.72 307.584
" style="fill: none; stroke: #000000; stroke-width: 0.8; stroke-linejoin: miter; stroke-linecap: square"/>
   </g>
   <g id="patch_6">
    <path d="M 57.6 41.472
L 414.72 41.472
" style="fill: none; stroke: #000000; stroke-width: 0.8; stroke-linejoin: miter; stroke-linecap: square"/>
   </g>
   <g id="text_14">
    <!-- Train Loss -->
    <g transform="translate(206.7 35.472) scale(0.12 -0.12)">
     <defs>
      <path id="DejaVuSans-54" d="M -19 4666
L 3928 4666
L 3928 4134
L 2272 4134
L 2272 0
L 1638 0
L 1638 4134
L -19 4134
L -19 4666
z
" transform="scale(0.015625)"/>
      <path id="DejaVuSans-72" d="M 2631 2963
Q 2534 3019 2420 3045
Q 2306 3072 2169 3072
Q 1681 3072 1420 2755
Q 1159 2438 1159 1844
L 1159 0
L 581 0
L 581 3500
L 1159 3500
L 1159 2956
Q 1341 3275 1631 3429
Q 1922 3584 2338 3584
Q 2397 3584 2469 3576
Q 2541 3569 2628 3553
L 2631 2963
z
" transform="scale(0.015625)"/>
      <path id="DejaVuSans-61" d="M 2194 1759
Q 1497 1759 1228 1600
Q 959 1441 959 1056
Q 959 750 1161 570
Q 1363 391 1709 391
Q 2188 391 2477 730
Q 2766 1069 2766 1631
L 2766 1759
L 2194 1759
z
M 3341 1997
L 3341 0
L 2766 0
L 2766 531
Q 2569 213 2275 61
Q 1981 -91 1556 -91
Q 1019 -91 701 211
Q 384 513 384 1019
Q 384 1609 779 1909
Q 1175 2209 1959 2209
L 2766 2209
L 2766 2266
Q 2766 2663 2505 2880
Q 2244 3097 1772 3097
Q 1472 3097 1187 3025
Q 903 2953 641 2809
L 641 3341
Q 956 3463 1253 3523
Q 1550 3584 1831 3584
Q 2591 3584 2966 3190
Q 3341 2797 3341 1997
z
" transform="scale(0.015625)"/>
      <path id="DejaVuSans-69" d="M 603 3500
L 1178 3500
L 1178 0
L 603 0
L 603 3500
z
M 603 4863
L 1178 4863
L 1178 4134
L 603 4134
L 603 4863
z
" transform="scale(0.015625)"/>
      <path id="DejaVuSans-6e" d="M 3513 2113
L 3513 0
L 2938 0
L 2938 2094
Q 2938 2591 2744 2837
Q 2550 3084 2163 3084
Q 1697 3084 1428 2787
Q 1159 2491 1159 1978
L 1159 0
L 581 0
L 581 3500
L 1159 3500
L 1159 2956
Q 1366 3272 1645 3428
Q 1925 3584 2291 3584
Q 2894 3584 3203 3211
Q 3513 2838 3513 2113
z
" transform="scale(0.015625)"/>
      <path id="DejaVuSans-20" transform="scale(0.015625)"/>
      <path id="DejaVuSans-4c" d="M 628 4666
L 1259 4666
L 1259 531
L 3531 531
L 3531 0
L 628 0
L 628 4666
z
" transform="scale(0.015625)"/>
      <path id="DejaVuSans-6f" d="M 1959 3097
Q 1497 3097 1228 2736
Q 959 2375 959 1747
Q 959 1119 1226 758
Q 1494 397 1959 397
Q 2419 397 2687 759
Q 2956 1122 2956 1747
Q 2956 2369 2687 2733
Q 2419 3097 1959 3097
z
M 1959 3584
Q 2709 3584 3137 3096
Q 3566 2609 3566 1747
Q 3566 888 3137 398
Q 2709 -91 1959 -91
Q 1206 -91 779 398
Q 353 888 353 1747
Q 353 2609 779 3096
Q 1206 3584 1959 3584
z
" transform="scale(0.015625)"/>
      <path id="DejaVuSans-73" d="M 2834 3397
L 2834 2853
Q 2591 2978 2328 3040
Q 2066 3103 1784 3103
Q 1356 3103 1142 2972
Q 928 2841 928 2578
Q 928 2378 1081 2264
Q 1234 2150 1697 2047
L 1894 2003
Q 2506 1872 2764 1633
Q 3022 1394 3022 966
Q 3022 478 2636 193
Q 2250 -91 1575 -91
Q 1294 -91 989 -36
Q 684 19 347 128
L 347 722
Q 666 556 975 473
Q 1284 391 1588 391
Q 1994 391 2212 530
Q 2431 669 2431 922
Q 2431 1156 2273 1281
Q 2116 1406 1581 1522
L 1381 1569
Q 847 1681 609 1914
Q 372 2147 372 2553
Q 372 3047 722 3315
Q 1072 3584 1716 3584
Q 2034 3584 2315 3537
Q 2597 3491 2834 3397
z
" transform="scale(0.015625)"/>
     </defs>
     <use xlink:href="#DejaVuSans-54"/>
     <use xlink:href="#DejaVuSans-72" x="46.333984"/>
     <use xlink:href="#DejaVuSans-61" x="87.447266"/>
     <use xlink:href="#DejaVuSans-69" x="148.726562"/>
     <use xlink:href="#DejaVuSans-6e" x="176.509766"/>
     <use xlink:href="#DejaVuSans-20" x="239.888672"/>
     <use xlink:href="#DejaVuSans-4c" x="271.675781"/>
     <use xlink:href="#DejaVuSans-6f" x="325.638672"/>
     <use xlink:href="#DejaVuSans-73" x="386.820312"/>
     <use xlink:href="#DejaVuSans-73" x="438.919922"/>
    </g>
   </g>
   <g id="legend_1">
    <g id="patch_7">
     <path d="M 335.402813 78.82825
L 407.72 78.82825
Q 409.72 78.82825 409.72 76.82825
L 409.72 48.472
Q 409.72 46.472 407.72 46.472
L 335.402813 46.472
Q 333.402813 46.472 333.402813 48.472
L 333.402813 76.82825
Q 333.402813 78.82825 335.402813 78.82825
z
" style="fill: #ffffff; opacity: 0.8; stroke: #cccccc; stroke-linejoin: miter"/>
    </g>
    <g id="line2d_16">
     <path d="M 337.402813 54.570437
L 347.402813 54.570437
L 357.402813 54.570437
" style="fill: none; stroke: #1f77b4; stroke-width: 1.5; stroke-linecap: square"/>
    </g>
    <g id="text_15">
     <!-- Phi-3 -->
     <g transform="translate(365.402813 58.070437) scale(0.1 -0.1)">
      <defs>
       <path id="DejaVuSans-50" d="M 1259 4147
L 1259 2394
L 2053 2394
Q 2494 2394 2734 2622
Q 2975 2850 2975 3272
Q 2975 3691 2734 3919
Q 2494 4147 2053 4147
L 1259 4147
z
M 628 4666
L 2053 4666
Q 2838 4666 3239 4311
Q 3641 3956 3641 3272
Q 3641 2581 3239 2228
Q 2838 1875 2053 1875
L 1259 1875
L 1259 0
L 628 0
L 628 4666
z
" transform="scale(0.015625)"/>
       <path id="DejaVuSans-68" d="M 3513 2113
L 3513 0
L 2938 0
L 2938 2094
Q 2938 2591 2744 2837
Q 2550 3084 2163 3084
Q 1697 3084 1428 2787
Q 1159 2491 1159 1978
L 1159 0
L 581 0
L 581 4863
L 1159 4863
L 1159 2956
Q 1366 3272 1645 3428
Q 1925 3584 2291 3584
Q 2894 3584 3203 3211
Q 3513 2838 3513 2113
z
" transform="scale(0.015625)"/>
       <path id="DejaVuSans-2d" d="M 313 2009
L 1997 2009
L 1997 1497
L 313 1497
L 313 2009
z
" transform="scale(0.015625)"/>
      </defs>
      <use xlink:href="#DejaVuSans-50"/>
      <use xlink:href="#DejaVuSans-68" x="60.302734"/>
      <use xlink:href="#DejaVuSans-69" x="123.681641"/>
      <use xlink:href="#DejaVuSans-2d" x="151.464844"/>
      <use xlink:href="#DejaVuSans-33" x="187.548828"/>
     </g>
    </g>
    <g id="line2d_17">
     <path d="M 337.402813 69.248562
L 347.402813 69.248562
L 357.402813 69.248562
" style="fill: none; stroke: #ff7f0e; stroke-width: 1.5; stroke-linecap: square"/>
    </g>
    <g id="text_16">
     <!-- Llama-3 -->
     <g transform="translate(365.402813 72.748562) scale(0.1 -0.1)">
      <defs>
       <path id="DejaVuSans-6c" d="M 603 4863
L 1178 4863
L 1178 0
L 603 0
L 603 4863
z
" transform="scale(0.015625)"/>
       <path id="DejaVuSans-6d" d="M 3328 2828
Q 3544 3216 3844 3400
Q 4144 3584 4550 3584
Q 5097 3584 5394 3201
Q 5691 2819 5691 2113
L 5691 0
L 5113 0
L 5113 2094
Q 5113 2597 4934 2840
Q 4756 3084 4391 3084
Q 3944 3084 3684 2787
Q 3425 2491 3425 1978
L 3425 0
L 2847 0
L 2847 2094
Q 2847 2600 2669 2842
Q 2491 3084 2119 3084
Q 1678 3084 1418 2786
Q 1159 2488 1159 1978
L 1159 0
L 581 0
L 581 3500
L 1159 3500
L 1159 2956
Q 1356 3278 1631 3431
Q 1906 3584 2284 3584
Q 2666 3584 2933 3390
Q 3200 3197 3328 2828
z
" transform="scale(0.015625)"/>
      </defs>
      <use xlink:href="#DejaVuSans-4c"/>
      <use xlink:href="#DejaVuSans-6c" x="55.712891"/>
      <use xlink:href="#DejaVuSans-61" x="83.496094"/>
      <use xlink:href="#DejaVuSans-6d" x="144.775391"/>
      <use xlink:href="#DejaVuSans-61" x="242.1875"/>
      <use xlink:href="#DejaVuSans-2d" x="303.466797"/>
      <use xlink:href="#DejaVuSans-33" x="339.550781"/>
     </g>
    </g>
   </g>
  </g>
 </g>
 <defs>
  <clipPath id="pdbfd7d7e38">
   <rect x="57.6" y="41.472" width="357.12" height="266.112"/>
  </clipPath>
 </defs>
</svg>
